M48
; DRILL file {KiCad 9.0.6-1.fc43} date 2026-03-21T11:46:30+0000
; FORMAT={-:-/ absolute / inch / decimal}
; #@! TF.CreationDate,2026-03-21T11:46:30+00:00
; #@! TF.GenerationSoftware,Kicad,Pcbnew,9.0.6-1.fc43
; #@! TF.FileFunction,Plated,1,2,PTH
FMAT,2
INCH
; #@! TA.AperFunction,Plated,PTH,ViaDrill
T1C0.0118
; #@! TA.AperFunction,Plated,PTH,ComponentDrill
T2C0.0394
; #@! TA.AperFunction,Plated,PTH,ComponentDrill
T3C0.0433
%
G90
G05
T1
X4.1715Y-2.5389
X4.1915Y-3.1089
X4.1915Y-3.2389
X4.2015Y-5.3189
X4.2215Y-4.7589
X4.2215Y-5.3989
X4.3015Y-2.2589
X4.3315Y-3.2489
X4.3315Y-4.6789
X4.4094Y-5.6053
X4.4115Y-4.1989
X4.4115Y-5.2789
X4.4215Y-5.4089
X4.4315Y-4.4089
X4.4415Y-2.6389
X4.4515Y-2.4889
X4.4615Y-4.3089
X4.4715Y-2.3889
X4.4915Y-5.5089
X4.5115Y-2.3189
X4.5315Y-3.0689
X4.5415Y-4.6189
X4.5715Y-3.1089
X4.5715Y-4.6989
X4.6102Y-4.5974
X4.6815Y-5.3589
X4.6915Y-5.6589
X4.8115Y-5.3789
X4.8215Y-2.2313
X4.9215Y-5.2589
X4.9315Y-5.1689
X4.9315Y-5.6589
X5.0963Y-4.1366
X5.0984Y-2.8415
X5.1315Y-4.1189
X5.1515Y-2.6089
X5.1915Y-3.2589
X5.2015Y-5.4389
X5.2515Y-3.9089
X5.2515Y-4.4089
X5.2615Y-3.7089
X5.2815Y-2.2989
X5.3215Y-3.7789
X5.3215Y-3.9389
X5.3215Y-4.2189
X5.3315Y-4.0689
X5.4736Y-3.0389
X5.4915Y-3.9589
X5.5615Y-4.0689
X5.5615Y-4.2089
X5.5615Y-4.3689
X5.5715Y-3.7889
X5.5715Y-3.9189
X5.5715Y-5.4989
X5.5815Y-2.6989
X5.5815Y-5.1789
X5.5991Y-3.9589
X5.6015Y-5.2789
X5.6215Y-2.2989
X5.6615Y-2.7489
X5.6715Y-2.2789
X5.6715Y-2.8089
X5.6715Y-4.9489
X5.7215Y-3.7489
X5.7615Y-2.3489
X5.7715Y-4.8989
X5.8215Y-3.5573
X5.8715Y-2.7489
X5.8715Y-2.9989
X5.8815Y-4.9889
X5.9115Y-4.0989
X5.9315Y-2.9589
X5.9715Y-2.6989
X5.9715Y-2.8989
X5.9715Y-5.0689
X6.0215Y-3.0089
X6.0215Y-3.8913
X6.0415Y-3.7489
X6.0615Y-2.2389
X6.0615Y-2.9589
X6.0615Y-5.1789
X6.0953Y-3.2589
X6.1215Y-3.9628
X6.1315Y-2.7664
X6.1315Y-4.1689
X6.1315Y-5.5489
X6.1715Y-3.0189
X6.1915Y-4.7489
X6.2315Y-3.8689
X6.2315Y-5.4189
X6.2415Y-3.1815
X6.2415Y-3.7589
X6.2615Y-3.9689
X6.2715Y-2.7789
X6.2715Y-3.2189
X6.2715Y-3.6789
X6.2815Y-3.7989
X6.3015Y-3.9689
X6.3215Y-2.7389
X6.3515Y-5.2589
X6.3715Y-2.3189
X6.3815Y-3.2089
X6.3815Y-5.0389
X6.3915Y-3.752
X6.3915Y-4.1089
X6.4015Y-2.7089
X6.4115Y-3.6789
X6.4215Y-5.1489
X6.4815Y-3.8989
X6.4815Y-4.0289
X6.5115Y-3.9389
X6.5215Y-4.3689
X6.5229Y-3.2689
X6.5515Y-3.5789
X6.5515Y-3.7189
X6.5615Y-3.3089
X6.5787Y-2.8455
X6.5866Y-4.1171
X6.5915Y-2.6289
X6.5915Y-4.0689
X6.5945Y-4.751
X6.6115Y-3.8189
X6.6615Y-3.9089
X6.6715Y-3.7489
X6.6815Y-3.2689
X6.7244Y-3.9715
X6.7559Y-3.81
X6.7598Y-3.9242
X6.7715Y-4.5089
X6.7717Y-3.1764
X6.7915Y-4.0989
X6.7953Y-3.5689
X6.8315Y-2.5089
X6.8583Y-3.2707
X6.8661Y-2.6919
X6.8715Y-3.6089
X6.8815Y-2.6489
X6.9315Y-2.7789
X6.9315Y-4.8589
X6.9519Y-4.2289
X6.9715Y-3.2789
X6.9815Y-3.6389
X6.9815Y-4.0089
X6.9915Y-3.6689
X6.9915Y-4.0589
X6.9961Y-4.5581
X7.0615Y-3.7989
X7.0669Y-4.1447
X7.0669Y-4.3195
X7.0715Y-3.1089
X7.0715Y-3.2489
X7.0906Y-3.3064
X7.0915Y-5.5889
X7.1015Y-5.1589
X7.1181Y-2.625
X7.1215Y-5.6389
X7.1299Y-2.6644
X7.1315Y-5.3589
X7.1461Y-4.1801
X7.1519Y-2.6919
X7.1615Y-3.2789
X7.1715Y-4.4189
X7.1815Y-3.1489
X7.1929Y-4.6053
X7.2015Y-4.0089
X7.2087Y-3.7667
X7.2244Y-3.1841
X7.2715Y-3.5789
X7.2756Y-2.6683
X7.2815Y-5.8189
X7.3415Y-3.7089
X7.3415Y-4.3189
X7.3515Y-3.5889
X7.3691Y-3.8789
X7.3715Y-2.3189
X7.3915Y-4.8089
X7.4115Y-3.2989
X7.4242Y-3.6389
X7.4315Y-3.9989
T2
X3.7402Y-2.5591
X3.7402Y-2.6591
X3.7402Y-2.7591
X3.7402Y-2.8591
X3.7402Y-2.9591
X3.7402Y-3.0591
X3.7402Y-3.1591
X3.7402Y-3.2591
X3.7402Y-3.3591
X3.7402Y-3.4591
X3.7402Y-3.5591
X3.7402Y-3.6591
X3.7402Y-3.7591
X3.7402Y-3.8591
X3.7402Y-3.9591
X3.7402Y-4.0591
X3.7402Y-4.1591
X3.7402Y-4.2591
X3.7402Y-4.3591
X3.7402Y-4.4591
X3.7402Y-4.5591
X3.7402Y-4.6591
X3.7402Y-4.7591
X3.7402Y-4.8591
X3.7402Y-4.9591
X3.7402Y-5.0591
X3.7402Y-5.1591
X3.7402Y-5.2591
X3.7402Y-5.3591
X3.7402Y-5.4591
X3.7402Y-5.5591
X3.7402Y-5.6591
X3.8402Y-2.5591
X3.8402Y-2.6591
X3.8402Y-2.7591
X3.8402Y-2.8591
X3.8402Y-2.9591
X3.8402Y-3.0591
X3.8402Y-3.1591
X3.8402Y-3.2591
X3.8402Y-3.3591
X3.8402Y-3.4591
X3.8402Y-3.5591
X3.8402Y-3.6591
X3.8402Y-3.7591
X3.8402Y-3.8591
X3.8402Y-3.9591
X3.8402Y-4.0591
X3.8402Y-4.1591
X3.8402Y-4.2591
X3.8402Y-4.3591
X3.8402Y-4.4591
X3.8402Y-4.5591
X3.8402Y-4.6591
X3.8402Y-4.7591
X3.8402Y-4.8591
X3.8402Y-4.9591
X3.8402Y-5.0591
X3.8402Y-5.1591
X3.8402Y-5.2591
X3.8402Y-5.3591
X3.8402Y-5.4591
X3.8402Y-5.5591
X3.8402Y-5.6591
X4.4222Y-5.7864
X4.5222Y-5.7864
X5.4736Y-2.4537
X5.4736Y-2.5537
X5.4736Y-3.3805
X5.4736Y-3.4805
X5.5736Y-2.4537
X5.5736Y-2.5537
X5.5736Y-3.3805
X5.5736Y-3.4805
X5.6736Y-2.4537
X5.6736Y-2.5537
X5.6736Y-3.3805
X5.6736Y-3.4805
X5.7736Y-2.4537
X5.7736Y-2.5537
X5.7736Y-3.3805
X5.7736Y-3.4805
X5.8736Y-2.4537
X5.8736Y-2.5537
X5.8736Y-3.3805
X5.8736Y-3.4805
X5.9346Y-4.2289
X5.9736Y-2.4537
X5.9736Y-2.5537
X5.9736Y-3.3805
X5.9736Y-3.4805
X6.0346Y-4.2289
X6.0736Y-2.4537
X6.0736Y-2.5537
X6.0736Y-3.3805
X6.0736Y-3.4805
X6.1346Y-4.2289
X6.1736Y-2.4537
X6.1736Y-2.5537
X6.1736Y-3.3805
X6.1736Y-3.4805
X6.2346Y-4.2289
X6.2736Y-2.4537
X6.2736Y-2.5537
X6.2736Y-3.3805
X6.2736Y-3.4805
X6.3736Y-2.4537
X6.3736Y-2.5537
X6.3736Y-3.3805
X6.3736Y-3.4805
X6.4736Y-2.4537
X6.4736Y-2.5537
X6.4736Y-3.3805
X6.4736Y-3.4805
X6.5736Y-2.4537
X6.5736Y-2.5537
X6.5736Y-3.3805
X6.5736Y-3.4805
X6.6736Y-2.4537
X6.6736Y-2.5537
X6.6736Y-3.3805
X6.6736Y-3.4805
X6.7736Y-2.4537
X6.7736Y-2.5537
X6.7736Y-3.3805
X6.7736Y-3.4805
X6.8736Y-2.4537
X6.8736Y-2.5537
X6.8736Y-3.3805
X6.8736Y-3.4805
X6.9736Y-2.4537
X6.9736Y-2.5537
X6.9736Y-3.3805
X6.9736Y-3.4805
X7.0736Y-2.4537
X7.0736Y-2.5537
X7.0736Y-3.3805
X7.0736Y-3.4805
X7.1736Y-2.4537
X7.1736Y-2.5537
X7.1736Y-3.3805
X7.1736Y-3.4805
X7.2736Y-2.4537
X7.2736Y-2.5537
X7.2736Y-3.3805
X7.2736Y-3.4805
X7.2835Y-4.5604
X7.2835Y-4.6604
X7.2835Y-4.7604
X7.2835Y-4.8604
X7.2835Y-4.9604
X7.2835Y-5.0604
X7.2835Y-5.1604
X7.2835Y-5.2604
X7.2835Y-5.3604
X7.2835Y-5.4604
X7.2835Y-5.5604
X7.2835Y-5.6604
X7.3736Y-2.4537
X7.3736Y-2.5537
X7.3736Y-3.3805
X7.3736Y-3.4805
T3
X5.3177Y-5.6321
X5.3177Y-5.8093
X5.5736Y-5.6321
X5.5736Y-5.8093
X5.9106Y-5.6392
X5.9106Y-5.8163
X6.1665Y-5.6392
X6.1665Y-5.8163
X6.4957Y-5.6396
X6.4957Y-5.8167
X6.7516Y-5.6396
X6.7516Y-5.8167
M30
