%TF.GenerationSoftware,KiCad,Pcbnew,9.0.6-1.fc43*%
%TF.CreationDate,2026-03-20T21:24:39+00:00*%
%TF.ProjectId,acorn-system-1-gadget1,61636f72-6e2d-4737-9973-74656d2d312d,rev?*%
%TF.SameCoordinates,Original*%
%TF.FileFunction,Legend,Top*%
%TF.FilePolarity,Positive*%
%FSLAX46Y46*%
G04 Gerber Fmt 4.6, Leading zero omitted, Abs format (unit mm)*
G04 Created by KiCad (PCBNEW 9.0.6-1.fc43) date 2026-03-20 21:24:39*
%MOMM*%
%LPD*%
G01*
G04 APERTURE LIST*
%ADD10C,0.100000*%
%ADD11C,0.150000*%
%ADD12C,0.120000*%
G04 APERTURE END LIST*
D10*
X137700000Y-60995000D02*
X188620000Y-60995000D01*
X188620000Y-89735000D01*
X137700000Y-89735000D01*
X137700000Y-60995000D01*
D11*
X112341160Y-64153216D02*
X112817350Y-64153216D01*
X112245922Y-64438931D02*
X112579255Y-63438931D01*
X112579255Y-63438931D02*
X112912588Y-64438931D01*
X113674493Y-64391312D02*
X113579255Y-64438931D01*
X113579255Y-64438931D02*
X113388779Y-64438931D01*
X113388779Y-64438931D02*
X113293541Y-64391312D01*
X113293541Y-64391312D02*
X113245922Y-64343692D01*
X113245922Y-64343692D02*
X113198303Y-64248454D01*
X113198303Y-64248454D02*
X113198303Y-63962740D01*
X113198303Y-63962740D02*
X113245922Y-63867502D01*
X113245922Y-63867502D02*
X113293541Y-63819883D01*
X113293541Y-63819883D02*
X113388779Y-63772264D01*
X113388779Y-63772264D02*
X113579255Y-63772264D01*
X113579255Y-63772264D02*
X113674493Y-63819883D01*
X114245922Y-64438931D02*
X114150684Y-64391312D01*
X114150684Y-64391312D02*
X114103065Y-64343692D01*
X114103065Y-64343692D02*
X114055446Y-64248454D01*
X114055446Y-64248454D02*
X114055446Y-63962740D01*
X114055446Y-63962740D02*
X114103065Y-63867502D01*
X114103065Y-63867502D02*
X114150684Y-63819883D01*
X114150684Y-63819883D02*
X114245922Y-63772264D01*
X114245922Y-63772264D02*
X114388779Y-63772264D01*
X114388779Y-63772264D02*
X114484017Y-63819883D01*
X114484017Y-63819883D02*
X114531636Y-63867502D01*
X114531636Y-63867502D02*
X114579255Y-63962740D01*
X114579255Y-63962740D02*
X114579255Y-64248454D01*
X114579255Y-64248454D02*
X114531636Y-64343692D01*
X114531636Y-64343692D02*
X114484017Y-64391312D01*
X114484017Y-64391312D02*
X114388779Y-64438931D01*
X114388779Y-64438931D02*
X114245922Y-64438931D01*
X115007827Y-64438931D02*
X115007827Y-63772264D01*
X115007827Y-63962740D02*
X115055446Y-63867502D01*
X115055446Y-63867502D02*
X115103065Y-63819883D01*
X115103065Y-63819883D02*
X115198303Y-63772264D01*
X115198303Y-63772264D02*
X115293541Y-63772264D01*
X115626875Y-63772264D02*
X115626875Y-64438931D01*
X115626875Y-63867502D02*
X115674494Y-63819883D01*
X115674494Y-63819883D02*
X115769732Y-63772264D01*
X115769732Y-63772264D02*
X115912589Y-63772264D01*
X115912589Y-63772264D02*
X116007827Y-63819883D01*
X116007827Y-63819883D02*
X116055446Y-63915121D01*
X116055446Y-63915121D02*
X116055446Y-64438931D01*
X117245923Y-64391312D02*
X117388780Y-64438931D01*
X117388780Y-64438931D02*
X117626875Y-64438931D01*
X117626875Y-64438931D02*
X117722113Y-64391312D01*
X117722113Y-64391312D02*
X117769732Y-64343692D01*
X117769732Y-64343692D02*
X117817351Y-64248454D01*
X117817351Y-64248454D02*
X117817351Y-64153216D01*
X117817351Y-64153216D02*
X117769732Y-64057978D01*
X117769732Y-64057978D02*
X117722113Y-64010359D01*
X117722113Y-64010359D02*
X117626875Y-63962740D01*
X117626875Y-63962740D02*
X117436399Y-63915121D01*
X117436399Y-63915121D02*
X117341161Y-63867502D01*
X117341161Y-63867502D02*
X117293542Y-63819883D01*
X117293542Y-63819883D02*
X117245923Y-63724645D01*
X117245923Y-63724645D02*
X117245923Y-63629407D01*
X117245923Y-63629407D02*
X117293542Y-63534169D01*
X117293542Y-63534169D02*
X117341161Y-63486550D01*
X117341161Y-63486550D02*
X117436399Y-63438931D01*
X117436399Y-63438931D02*
X117674494Y-63438931D01*
X117674494Y-63438931D02*
X117817351Y-63486550D01*
X118150685Y-63772264D02*
X118388780Y-64438931D01*
X118626875Y-63772264D02*
X118388780Y-64438931D01*
X118388780Y-64438931D02*
X118293542Y-64677026D01*
X118293542Y-64677026D02*
X118245923Y-64724645D01*
X118245923Y-64724645D02*
X118150685Y-64772264D01*
X118960209Y-64391312D02*
X119055447Y-64438931D01*
X119055447Y-64438931D02*
X119245923Y-64438931D01*
X119245923Y-64438931D02*
X119341161Y-64391312D01*
X119341161Y-64391312D02*
X119388780Y-64296073D01*
X119388780Y-64296073D02*
X119388780Y-64248454D01*
X119388780Y-64248454D02*
X119341161Y-64153216D01*
X119341161Y-64153216D02*
X119245923Y-64105597D01*
X119245923Y-64105597D02*
X119103066Y-64105597D01*
X119103066Y-64105597D02*
X119007828Y-64057978D01*
X119007828Y-64057978D02*
X118960209Y-63962740D01*
X118960209Y-63962740D02*
X118960209Y-63915121D01*
X118960209Y-63915121D02*
X119007828Y-63819883D01*
X119007828Y-63819883D02*
X119103066Y-63772264D01*
X119103066Y-63772264D02*
X119245923Y-63772264D01*
X119245923Y-63772264D02*
X119341161Y-63819883D01*
X119674495Y-63772264D02*
X120055447Y-63772264D01*
X119817352Y-63438931D02*
X119817352Y-64296073D01*
X119817352Y-64296073D02*
X119864971Y-64391312D01*
X119864971Y-64391312D02*
X119960209Y-64438931D01*
X119960209Y-64438931D02*
X120055447Y-64438931D01*
X120769733Y-64391312D02*
X120674495Y-64438931D01*
X120674495Y-64438931D02*
X120484019Y-64438931D01*
X120484019Y-64438931D02*
X120388781Y-64391312D01*
X120388781Y-64391312D02*
X120341162Y-64296073D01*
X120341162Y-64296073D02*
X120341162Y-63915121D01*
X120341162Y-63915121D02*
X120388781Y-63819883D01*
X120388781Y-63819883D02*
X120484019Y-63772264D01*
X120484019Y-63772264D02*
X120674495Y-63772264D01*
X120674495Y-63772264D02*
X120769733Y-63819883D01*
X120769733Y-63819883D02*
X120817352Y-63915121D01*
X120817352Y-63915121D02*
X120817352Y-64010359D01*
X120817352Y-64010359D02*
X120341162Y-64105597D01*
X121245924Y-64438931D02*
X121245924Y-63772264D01*
X121245924Y-63867502D02*
X121293543Y-63819883D01*
X121293543Y-63819883D02*
X121388781Y-63772264D01*
X121388781Y-63772264D02*
X121531638Y-63772264D01*
X121531638Y-63772264D02*
X121626876Y-63819883D01*
X121626876Y-63819883D02*
X121674495Y-63915121D01*
X121674495Y-63915121D02*
X121674495Y-64438931D01*
X121674495Y-63915121D02*
X121722114Y-63819883D01*
X121722114Y-63819883D02*
X121817352Y-63772264D01*
X121817352Y-63772264D02*
X121960209Y-63772264D01*
X121960209Y-63772264D02*
X122055448Y-63819883D01*
X122055448Y-63819883D02*
X122103067Y-63915121D01*
X122103067Y-63915121D02*
X122103067Y-64438931D01*
X123864971Y-64438931D02*
X123293543Y-64438931D01*
X123579257Y-64438931D02*
X123579257Y-63438931D01*
X123579257Y-63438931D02*
X123484019Y-63581788D01*
X123484019Y-63581788D02*
X123388781Y-63677026D01*
X123388781Y-63677026D02*
X123293543Y-63724645D01*
X125579257Y-63486550D02*
X125484019Y-63438931D01*
X125484019Y-63438931D02*
X125341162Y-63438931D01*
X125341162Y-63438931D02*
X125198305Y-63486550D01*
X125198305Y-63486550D02*
X125103067Y-63581788D01*
X125103067Y-63581788D02*
X125055448Y-63677026D01*
X125055448Y-63677026D02*
X125007829Y-63867502D01*
X125007829Y-63867502D02*
X125007829Y-64010359D01*
X125007829Y-64010359D02*
X125055448Y-64200835D01*
X125055448Y-64200835D02*
X125103067Y-64296073D01*
X125103067Y-64296073D02*
X125198305Y-64391312D01*
X125198305Y-64391312D02*
X125341162Y-64438931D01*
X125341162Y-64438931D02*
X125436400Y-64438931D01*
X125436400Y-64438931D02*
X125579257Y-64391312D01*
X125579257Y-64391312D02*
X125626876Y-64343692D01*
X125626876Y-64343692D02*
X125626876Y-64010359D01*
X125626876Y-64010359D02*
X125436400Y-64010359D01*
X126484019Y-64438931D02*
X126484019Y-63915121D01*
X126484019Y-63915121D02*
X126436400Y-63819883D01*
X126436400Y-63819883D02*
X126341162Y-63772264D01*
X126341162Y-63772264D02*
X126150686Y-63772264D01*
X126150686Y-63772264D02*
X126055448Y-63819883D01*
X126484019Y-64391312D02*
X126388781Y-64438931D01*
X126388781Y-64438931D02*
X126150686Y-64438931D01*
X126150686Y-64438931D02*
X126055448Y-64391312D01*
X126055448Y-64391312D02*
X126007829Y-64296073D01*
X126007829Y-64296073D02*
X126007829Y-64200835D01*
X126007829Y-64200835D02*
X126055448Y-64105597D01*
X126055448Y-64105597D02*
X126150686Y-64057978D01*
X126150686Y-64057978D02*
X126388781Y-64057978D01*
X126388781Y-64057978D02*
X126484019Y-64010359D01*
X127388781Y-64438931D02*
X127388781Y-63438931D01*
X127388781Y-64391312D02*
X127293543Y-64438931D01*
X127293543Y-64438931D02*
X127103067Y-64438931D01*
X127103067Y-64438931D02*
X127007829Y-64391312D01*
X127007829Y-64391312D02*
X126960210Y-64343692D01*
X126960210Y-64343692D02*
X126912591Y-64248454D01*
X126912591Y-64248454D02*
X126912591Y-63962740D01*
X126912591Y-63962740D02*
X126960210Y-63867502D01*
X126960210Y-63867502D02*
X127007829Y-63819883D01*
X127007829Y-63819883D02*
X127103067Y-63772264D01*
X127103067Y-63772264D02*
X127293543Y-63772264D01*
X127293543Y-63772264D02*
X127388781Y-63819883D01*
X128293543Y-63772264D02*
X128293543Y-64581788D01*
X128293543Y-64581788D02*
X128245924Y-64677026D01*
X128245924Y-64677026D02*
X128198305Y-64724645D01*
X128198305Y-64724645D02*
X128103067Y-64772264D01*
X128103067Y-64772264D02*
X127960210Y-64772264D01*
X127960210Y-64772264D02*
X127864972Y-64724645D01*
X128293543Y-64391312D02*
X128198305Y-64438931D01*
X128198305Y-64438931D02*
X128007829Y-64438931D01*
X128007829Y-64438931D02*
X127912591Y-64391312D01*
X127912591Y-64391312D02*
X127864972Y-64343692D01*
X127864972Y-64343692D02*
X127817353Y-64248454D01*
X127817353Y-64248454D02*
X127817353Y-63962740D01*
X127817353Y-63962740D02*
X127864972Y-63867502D01*
X127864972Y-63867502D02*
X127912591Y-63819883D01*
X127912591Y-63819883D02*
X128007829Y-63772264D01*
X128007829Y-63772264D02*
X128198305Y-63772264D01*
X128198305Y-63772264D02*
X128293543Y-63819883D01*
X129150686Y-64391312D02*
X129055448Y-64438931D01*
X129055448Y-64438931D02*
X128864972Y-64438931D01*
X128864972Y-64438931D02*
X128769734Y-64391312D01*
X128769734Y-64391312D02*
X128722115Y-64296073D01*
X128722115Y-64296073D02*
X128722115Y-63915121D01*
X128722115Y-63915121D02*
X128769734Y-63819883D01*
X128769734Y-63819883D02*
X128864972Y-63772264D01*
X128864972Y-63772264D02*
X129055448Y-63772264D01*
X129055448Y-63772264D02*
X129150686Y-63819883D01*
X129150686Y-63819883D02*
X129198305Y-63915121D01*
X129198305Y-63915121D02*
X129198305Y-64010359D01*
X129198305Y-64010359D02*
X128722115Y-64105597D01*
X129484020Y-63772264D02*
X129864972Y-63772264D01*
X129626877Y-63438931D02*
X129626877Y-64296073D01*
X129626877Y-64296073D02*
X129674496Y-64391312D01*
X129674496Y-64391312D02*
X129769734Y-64438931D01*
X129769734Y-64438931D02*
X129864972Y-64438931D01*
X112388779Y-66048875D02*
X112388779Y-65048875D01*
X112388779Y-65048875D02*
X112722112Y-65763160D01*
X112722112Y-65763160D02*
X113055445Y-65048875D01*
X113055445Y-65048875D02*
X113055445Y-66048875D01*
X113960207Y-66048875D02*
X113960207Y-65525065D01*
X113960207Y-65525065D02*
X113912588Y-65429827D01*
X113912588Y-65429827D02*
X113817350Y-65382208D01*
X113817350Y-65382208D02*
X113626874Y-65382208D01*
X113626874Y-65382208D02*
X113531636Y-65429827D01*
X113960207Y-66001256D02*
X113864969Y-66048875D01*
X113864969Y-66048875D02*
X113626874Y-66048875D01*
X113626874Y-66048875D02*
X113531636Y-66001256D01*
X113531636Y-66001256D02*
X113484017Y-65906017D01*
X113484017Y-65906017D02*
X113484017Y-65810779D01*
X113484017Y-65810779D02*
X113531636Y-65715541D01*
X113531636Y-65715541D02*
X113626874Y-65667922D01*
X113626874Y-65667922D02*
X113864969Y-65667922D01*
X113864969Y-65667922D02*
X113960207Y-65620303D01*
X114436398Y-66048875D02*
X114436398Y-65382208D01*
X114436398Y-65572684D02*
X114484017Y-65477446D01*
X114484017Y-65477446D02*
X114531636Y-65429827D01*
X114531636Y-65429827D02*
X114626874Y-65382208D01*
X114626874Y-65382208D02*
X114722112Y-65382208D01*
X115769732Y-65144113D02*
X115817351Y-65096494D01*
X115817351Y-65096494D02*
X115912589Y-65048875D01*
X115912589Y-65048875D02*
X116150684Y-65048875D01*
X116150684Y-65048875D02*
X116245922Y-65096494D01*
X116245922Y-65096494D02*
X116293541Y-65144113D01*
X116293541Y-65144113D02*
X116341160Y-65239351D01*
X116341160Y-65239351D02*
X116341160Y-65334589D01*
X116341160Y-65334589D02*
X116293541Y-65477446D01*
X116293541Y-65477446D02*
X115722113Y-66048875D01*
X115722113Y-66048875D02*
X116341160Y-66048875D01*
X116960208Y-65048875D02*
X117055446Y-65048875D01*
X117055446Y-65048875D02*
X117150684Y-65096494D01*
X117150684Y-65096494D02*
X117198303Y-65144113D01*
X117198303Y-65144113D02*
X117245922Y-65239351D01*
X117245922Y-65239351D02*
X117293541Y-65429827D01*
X117293541Y-65429827D02*
X117293541Y-65667922D01*
X117293541Y-65667922D02*
X117245922Y-65858398D01*
X117245922Y-65858398D02*
X117198303Y-65953636D01*
X117198303Y-65953636D02*
X117150684Y-66001256D01*
X117150684Y-66001256D02*
X117055446Y-66048875D01*
X117055446Y-66048875D02*
X116960208Y-66048875D01*
X116960208Y-66048875D02*
X116864970Y-66001256D01*
X116864970Y-66001256D02*
X116817351Y-65953636D01*
X116817351Y-65953636D02*
X116769732Y-65858398D01*
X116769732Y-65858398D02*
X116722113Y-65667922D01*
X116722113Y-65667922D02*
X116722113Y-65429827D01*
X116722113Y-65429827D02*
X116769732Y-65239351D01*
X116769732Y-65239351D02*
X116817351Y-65144113D01*
X116817351Y-65144113D02*
X116864970Y-65096494D01*
X116864970Y-65096494D02*
X116960208Y-65048875D01*
X117674494Y-65144113D02*
X117722113Y-65096494D01*
X117722113Y-65096494D02*
X117817351Y-65048875D01*
X117817351Y-65048875D02*
X118055446Y-65048875D01*
X118055446Y-65048875D02*
X118150684Y-65096494D01*
X118150684Y-65096494D02*
X118198303Y-65144113D01*
X118198303Y-65144113D02*
X118245922Y-65239351D01*
X118245922Y-65239351D02*
X118245922Y-65334589D01*
X118245922Y-65334589D02*
X118198303Y-65477446D01*
X118198303Y-65477446D02*
X117626875Y-66048875D01*
X117626875Y-66048875D02*
X118245922Y-66048875D01*
X119103065Y-65048875D02*
X118912589Y-65048875D01*
X118912589Y-65048875D02*
X118817351Y-65096494D01*
X118817351Y-65096494D02*
X118769732Y-65144113D01*
X118769732Y-65144113D02*
X118674494Y-65286970D01*
X118674494Y-65286970D02*
X118626875Y-65477446D01*
X118626875Y-65477446D02*
X118626875Y-65858398D01*
X118626875Y-65858398D02*
X118674494Y-65953636D01*
X118674494Y-65953636D02*
X118722113Y-66001256D01*
X118722113Y-66001256D02*
X118817351Y-66048875D01*
X118817351Y-66048875D02*
X119007827Y-66048875D01*
X119007827Y-66048875D02*
X119103065Y-66001256D01*
X119103065Y-66001256D02*
X119150684Y-65953636D01*
X119150684Y-65953636D02*
X119198303Y-65858398D01*
X119198303Y-65858398D02*
X119198303Y-65620303D01*
X119198303Y-65620303D02*
X119150684Y-65525065D01*
X119150684Y-65525065D02*
X119103065Y-65477446D01*
X119103065Y-65477446D02*
X119007827Y-65429827D01*
X119007827Y-65429827D02*
X118817351Y-65429827D01*
X118817351Y-65429827D02*
X118722113Y-65477446D01*
X118722113Y-65477446D02*
X118674494Y-65525065D01*
X118674494Y-65525065D02*
X118626875Y-65620303D01*
X120245923Y-65048875D02*
X120579256Y-66048875D01*
X120579256Y-66048875D02*
X120912589Y-65048875D01*
X121769732Y-66048875D02*
X121198304Y-66048875D01*
X121484018Y-66048875D02*
X121484018Y-65048875D01*
X121484018Y-65048875D02*
X121388780Y-65191732D01*
X121388780Y-65191732D02*
X121293542Y-65286970D01*
X121293542Y-65286970D02*
X121198304Y-65334589D01*
X122198304Y-65953636D02*
X122245923Y-66001256D01*
X122245923Y-66001256D02*
X122198304Y-66048875D01*
X122198304Y-66048875D02*
X122150685Y-66001256D01*
X122150685Y-66001256D02*
X122198304Y-65953636D01*
X122198304Y-65953636D02*
X122198304Y-66048875D01*
X123198303Y-66048875D02*
X122626875Y-66048875D01*
X122912589Y-66048875D02*
X122912589Y-65048875D01*
X122912589Y-65048875D02*
X122817351Y-65191732D01*
X122817351Y-65191732D02*
X122722113Y-65286970D01*
X122722113Y-65286970D02*
X122626875Y-65334589D01*
X112388779Y-67658819D02*
X112388779Y-66992152D01*
X112388779Y-67087390D02*
X112436398Y-67039771D01*
X112436398Y-67039771D02*
X112531636Y-66992152D01*
X112531636Y-66992152D02*
X112674493Y-66992152D01*
X112674493Y-66992152D02*
X112769731Y-67039771D01*
X112769731Y-67039771D02*
X112817350Y-67135009D01*
X112817350Y-67135009D02*
X112817350Y-67658819D01*
X112817350Y-67135009D02*
X112864969Y-67039771D01*
X112864969Y-67039771D02*
X112960207Y-66992152D01*
X112960207Y-66992152D02*
X113103064Y-66992152D01*
X113103064Y-66992152D02*
X113198303Y-67039771D01*
X113198303Y-67039771D02*
X113245922Y-67135009D01*
X113245922Y-67135009D02*
X113245922Y-67658819D01*
X114103064Y-67611200D02*
X114007826Y-67658819D01*
X114007826Y-67658819D02*
X113817350Y-67658819D01*
X113817350Y-67658819D02*
X113722112Y-67611200D01*
X113722112Y-67611200D02*
X113674493Y-67515961D01*
X113674493Y-67515961D02*
X113674493Y-67135009D01*
X113674493Y-67135009D02*
X113722112Y-67039771D01*
X113722112Y-67039771D02*
X113817350Y-66992152D01*
X113817350Y-66992152D02*
X114007826Y-66992152D01*
X114007826Y-66992152D02*
X114103064Y-67039771D01*
X114103064Y-67039771D02*
X114150683Y-67135009D01*
X114150683Y-67135009D02*
X114150683Y-67230247D01*
X114150683Y-67230247D02*
X113674493Y-67325485D01*
X114579255Y-66992152D02*
X114579255Y-67658819D01*
X114579255Y-67087390D02*
X114626874Y-67039771D01*
X114626874Y-67039771D02*
X114722112Y-66992152D01*
X114722112Y-66992152D02*
X114864969Y-66992152D01*
X114864969Y-66992152D02*
X114960207Y-67039771D01*
X114960207Y-67039771D02*
X115007826Y-67135009D01*
X115007826Y-67135009D02*
X115007826Y-67658819D01*
X115912588Y-67658819D02*
X115912588Y-67135009D01*
X115912588Y-67135009D02*
X115864969Y-67039771D01*
X115864969Y-67039771D02*
X115769731Y-66992152D01*
X115769731Y-66992152D02*
X115579255Y-66992152D01*
X115579255Y-66992152D02*
X115484017Y-67039771D01*
X115912588Y-67611200D02*
X115817350Y-67658819D01*
X115817350Y-67658819D02*
X115579255Y-67658819D01*
X115579255Y-67658819D02*
X115484017Y-67611200D01*
X115484017Y-67611200D02*
X115436398Y-67515961D01*
X115436398Y-67515961D02*
X115436398Y-67420723D01*
X115436398Y-67420723D02*
X115484017Y-67325485D01*
X115484017Y-67325485D02*
X115579255Y-67277866D01*
X115579255Y-67277866D02*
X115817350Y-67277866D01*
X115817350Y-67277866D02*
X115912588Y-67230247D01*
X116817350Y-67658819D02*
X116817350Y-66658819D01*
X116817350Y-67611200D02*
X116722112Y-67658819D01*
X116722112Y-67658819D02*
X116531636Y-67658819D01*
X116531636Y-67658819D02*
X116436398Y-67611200D01*
X116436398Y-67611200D02*
X116388779Y-67563580D01*
X116388779Y-67563580D02*
X116341160Y-67468342D01*
X116341160Y-67468342D02*
X116341160Y-67182628D01*
X116341160Y-67182628D02*
X116388779Y-67087390D01*
X116388779Y-67087390D02*
X116436398Y-67039771D01*
X116436398Y-67039771D02*
X116531636Y-66992152D01*
X116531636Y-66992152D02*
X116722112Y-66992152D01*
X116722112Y-66992152D02*
X116817350Y-67039771D01*
X117722112Y-66992152D02*
X117722112Y-67658819D01*
X117293541Y-66992152D02*
X117293541Y-67515961D01*
X117293541Y-67515961D02*
X117341160Y-67611200D01*
X117341160Y-67611200D02*
X117436398Y-67658819D01*
X117436398Y-67658819D02*
X117579255Y-67658819D01*
X117579255Y-67658819D02*
X117674493Y-67611200D01*
X117674493Y-67611200D02*
X117722112Y-67563580D01*
X118579255Y-67611200D02*
X118484017Y-67658819D01*
X118484017Y-67658819D02*
X118293541Y-67658819D01*
X118293541Y-67658819D02*
X118198303Y-67611200D01*
X118198303Y-67611200D02*
X118150684Y-67515961D01*
X118150684Y-67515961D02*
X118150684Y-67135009D01*
X118150684Y-67135009D02*
X118198303Y-67039771D01*
X118198303Y-67039771D02*
X118293541Y-66992152D01*
X118293541Y-66992152D02*
X118484017Y-66992152D01*
X118484017Y-66992152D02*
X118579255Y-67039771D01*
X118579255Y-67039771D02*
X118626874Y-67135009D01*
X118626874Y-67135009D02*
X118626874Y-67230247D01*
X118626874Y-67230247D02*
X118150684Y-67325485D01*
X119674493Y-67182628D02*
X119626874Y-67135009D01*
X119626874Y-67135009D02*
X119531636Y-67087390D01*
X119531636Y-67087390D02*
X119436398Y-67087390D01*
X119436398Y-67087390D02*
X119341160Y-67135009D01*
X119341160Y-67135009D02*
X119293541Y-67182628D01*
X119293541Y-67182628D02*
X119245922Y-67277866D01*
X119245922Y-67277866D02*
X119245922Y-67373104D01*
X119245922Y-67373104D02*
X119293541Y-67468342D01*
X119293541Y-67468342D02*
X119341160Y-67515961D01*
X119341160Y-67515961D02*
X119436398Y-67563580D01*
X119436398Y-67563580D02*
X119531636Y-67563580D01*
X119531636Y-67563580D02*
X119626874Y-67515961D01*
X119626874Y-67515961D02*
X119674493Y-67468342D01*
X119674493Y-67087390D02*
X119674493Y-67468342D01*
X119674493Y-67468342D02*
X119722112Y-67515961D01*
X119722112Y-67515961D02*
X119769731Y-67515961D01*
X119769731Y-67515961D02*
X119864970Y-67468342D01*
X119864970Y-67468342D02*
X119912589Y-67373104D01*
X119912589Y-67373104D02*
X119912589Y-67135009D01*
X119912589Y-67135009D02*
X119817351Y-66992152D01*
X119817351Y-66992152D02*
X119674493Y-66896914D01*
X119674493Y-66896914D02*
X119484017Y-66849295D01*
X119484017Y-66849295D02*
X119293541Y-66896914D01*
X119293541Y-66896914D02*
X119150684Y-66992152D01*
X119150684Y-66992152D02*
X119055446Y-67135009D01*
X119055446Y-67135009D02*
X119007827Y-67325485D01*
X119007827Y-67325485D02*
X119055446Y-67515961D01*
X119055446Y-67515961D02*
X119150684Y-67658819D01*
X119150684Y-67658819D02*
X119293541Y-67754057D01*
X119293541Y-67754057D02*
X119484017Y-67801676D01*
X119484017Y-67801676D02*
X119674493Y-67754057D01*
X119674493Y-67754057D02*
X119817351Y-67658819D01*
X120769731Y-66992152D02*
X120769731Y-67801676D01*
X120769731Y-67801676D02*
X120722112Y-67896914D01*
X120722112Y-67896914D02*
X120674493Y-67944533D01*
X120674493Y-67944533D02*
X120579255Y-67992152D01*
X120579255Y-67992152D02*
X120436398Y-67992152D01*
X120436398Y-67992152D02*
X120341160Y-67944533D01*
X120769731Y-67611200D02*
X120674493Y-67658819D01*
X120674493Y-67658819D02*
X120484017Y-67658819D01*
X120484017Y-67658819D02*
X120388779Y-67611200D01*
X120388779Y-67611200D02*
X120341160Y-67563580D01*
X120341160Y-67563580D02*
X120293541Y-67468342D01*
X120293541Y-67468342D02*
X120293541Y-67182628D01*
X120293541Y-67182628D02*
X120341160Y-67087390D01*
X120341160Y-67087390D02*
X120388779Y-67039771D01*
X120388779Y-67039771D02*
X120484017Y-66992152D01*
X120484017Y-66992152D02*
X120674493Y-66992152D01*
X120674493Y-66992152D02*
X120769731Y-67039771D01*
X121245922Y-67658819D02*
X121245922Y-66992152D01*
X121245922Y-67087390D02*
X121293541Y-67039771D01*
X121293541Y-67039771D02*
X121388779Y-66992152D01*
X121388779Y-66992152D02*
X121531636Y-66992152D01*
X121531636Y-66992152D02*
X121626874Y-67039771D01*
X121626874Y-67039771D02*
X121674493Y-67135009D01*
X121674493Y-67135009D02*
X121674493Y-67658819D01*
X121674493Y-67135009D02*
X121722112Y-67039771D01*
X121722112Y-67039771D02*
X121817350Y-66992152D01*
X121817350Y-66992152D02*
X121960207Y-66992152D01*
X121960207Y-66992152D02*
X122055446Y-67039771D01*
X122055446Y-67039771D02*
X122103065Y-67135009D01*
X122103065Y-67135009D02*
X122103065Y-67658819D01*
X123007826Y-67658819D02*
X123007826Y-67135009D01*
X123007826Y-67135009D02*
X122960207Y-67039771D01*
X122960207Y-67039771D02*
X122864969Y-66992152D01*
X122864969Y-66992152D02*
X122674493Y-66992152D01*
X122674493Y-66992152D02*
X122579255Y-67039771D01*
X123007826Y-67611200D02*
X122912588Y-67658819D01*
X122912588Y-67658819D02*
X122674493Y-67658819D01*
X122674493Y-67658819D02*
X122579255Y-67611200D01*
X122579255Y-67611200D02*
X122531636Y-67515961D01*
X122531636Y-67515961D02*
X122531636Y-67420723D01*
X122531636Y-67420723D02*
X122579255Y-67325485D01*
X122579255Y-67325485D02*
X122674493Y-67277866D01*
X122674493Y-67277866D02*
X122912588Y-67277866D01*
X122912588Y-67277866D02*
X123007826Y-67230247D01*
X123484017Y-67658819D02*
X123484017Y-66992152D01*
X123484017Y-66658819D02*
X123436398Y-66706438D01*
X123436398Y-66706438D02*
X123484017Y-66754057D01*
X123484017Y-66754057D02*
X123531636Y-66706438D01*
X123531636Y-66706438D02*
X123484017Y-66658819D01*
X123484017Y-66658819D02*
X123484017Y-66754057D01*
X124103064Y-67658819D02*
X124007826Y-67611200D01*
X124007826Y-67611200D02*
X123960207Y-67515961D01*
X123960207Y-67515961D02*
X123960207Y-66658819D01*
X124484017Y-67563580D02*
X124531636Y-67611200D01*
X124531636Y-67611200D02*
X124484017Y-67658819D01*
X124484017Y-67658819D02*
X124436398Y-67611200D01*
X124436398Y-67611200D02*
X124484017Y-67563580D01*
X124484017Y-67563580D02*
X124484017Y-67658819D01*
X125388778Y-67611200D02*
X125293540Y-67658819D01*
X125293540Y-67658819D02*
X125103064Y-67658819D01*
X125103064Y-67658819D02*
X125007826Y-67611200D01*
X125007826Y-67611200D02*
X124960207Y-67563580D01*
X124960207Y-67563580D02*
X124912588Y-67468342D01*
X124912588Y-67468342D02*
X124912588Y-67182628D01*
X124912588Y-67182628D02*
X124960207Y-67087390D01*
X124960207Y-67087390D02*
X125007826Y-67039771D01*
X125007826Y-67039771D02*
X125103064Y-66992152D01*
X125103064Y-66992152D02*
X125293540Y-66992152D01*
X125293540Y-66992152D02*
X125388778Y-67039771D01*
X125960207Y-67658819D02*
X125864969Y-67611200D01*
X125864969Y-67611200D02*
X125817350Y-67563580D01*
X125817350Y-67563580D02*
X125769731Y-67468342D01*
X125769731Y-67468342D02*
X125769731Y-67182628D01*
X125769731Y-67182628D02*
X125817350Y-67087390D01*
X125817350Y-67087390D02*
X125864969Y-67039771D01*
X125864969Y-67039771D02*
X125960207Y-66992152D01*
X125960207Y-66992152D02*
X126103064Y-66992152D01*
X126103064Y-66992152D02*
X126198302Y-67039771D01*
X126198302Y-67039771D02*
X126245921Y-67087390D01*
X126245921Y-67087390D02*
X126293540Y-67182628D01*
X126293540Y-67182628D02*
X126293540Y-67468342D01*
X126293540Y-67468342D02*
X126245921Y-67563580D01*
X126245921Y-67563580D02*
X126198302Y-67611200D01*
X126198302Y-67611200D02*
X126103064Y-67658819D01*
X126103064Y-67658819D02*
X125960207Y-67658819D01*
X126722112Y-67658819D02*
X126722112Y-66992152D01*
X126722112Y-67087390D02*
X126769731Y-67039771D01*
X126769731Y-67039771D02*
X126864969Y-66992152D01*
X126864969Y-66992152D02*
X127007826Y-66992152D01*
X127007826Y-66992152D02*
X127103064Y-67039771D01*
X127103064Y-67039771D02*
X127150683Y-67135009D01*
X127150683Y-67135009D02*
X127150683Y-67658819D01*
X127150683Y-67135009D02*
X127198302Y-67039771D01*
X127198302Y-67039771D02*
X127293540Y-66992152D01*
X127293540Y-66992152D02*
X127436397Y-66992152D01*
X127436397Y-66992152D02*
X127531636Y-67039771D01*
X127531636Y-67039771D02*
X127579255Y-67135009D01*
X127579255Y-67135009D02*
X127579255Y-67658819D01*
D10*
X127341884Y-103983419D02*
X127341884Y-102983419D01*
X127341884Y-102983419D02*
X127722836Y-102983419D01*
X127722836Y-102983419D02*
X127818074Y-103031038D01*
X127818074Y-103031038D02*
X127865693Y-103078657D01*
X127865693Y-103078657D02*
X127913312Y-103173895D01*
X127913312Y-103173895D02*
X127913312Y-103316752D01*
X127913312Y-103316752D02*
X127865693Y-103411990D01*
X127865693Y-103411990D02*
X127818074Y-103459609D01*
X127818074Y-103459609D02*
X127722836Y-103507228D01*
X127722836Y-103507228D02*
X127341884Y-103507228D01*
X128341884Y-103983419D02*
X128341884Y-103316752D01*
X128341884Y-102983419D02*
X128294265Y-103031038D01*
X128294265Y-103031038D02*
X128341884Y-103078657D01*
X128341884Y-103078657D02*
X128389503Y-103031038D01*
X128389503Y-103031038D02*
X128341884Y-102983419D01*
X128341884Y-102983419D02*
X128341884Y-103078657D01*
X128818074Y-103316752D02*
X128818074Y-103983419D01*
X128818074Y-103411990D02*
X128865693Y-103364371D01*
X128865693Y-103364371D02*
X128960931Y-103316752D01*
X128960931Y-103316752D02*
X129103788Y-103316752D01*
X129103788Y-103316752D02*
X129199026Y-103364371D01*
X129199026Y-103364371D02*
X129246645Y-103459609D01*
X129246645Y-103459609D02*
X129246645Y-103983419D01*
X130151407Y-103316752D02*
X130151407Y-103983419D01*
X129913312Y-102935800D02*
X129675217Y-103650085D01*
X129675217Y-103650085D02*
X130294264Y-103650085D01*
X131341884Y-102983419D02*
X131960931Y-102983419D01*
X131960931Y-102983419D02*
X131627598Y-103364371D01*
X131627598Y-103364371D02*
X131770455Y-103364371D01*
X131770455Y-103364371D02*
X131865693Y-103411990D01*
X131865693Y-103411990D02*
X131913312Y-103459609D01*
X131913312Y-103459609D02*
X131960931Y-103554847D01*
X131960931Y-103554847D02*
X131960931Y-103792942D01*
X131960931Y-103792942D02*
X131913312Y-103888180D01*
X131913312Y-103888180D02*
X131865693Y-103935800D01*
X131865693Y-103935800D02*
X131770455Y-103983419D01*
X131770455Y-103983419D02*
X131484741Y-103983419D01*
X131484741Y-103983419D02*
X131389503Y-103935800D01*
X131389503Y-103935800D02*
X131341884Y-103888180D01*
X132246646Y-102983419D02*
X132579979Y-103983419D01*
X132579979Y-103983419D02*
X132913312Y-102983419D01*
X133151408Y-102983419D02*
X133770455Y-102983419D01*
X133770455Y-102983419D02*
X133437122Y-103364371D01*
X133437122Y-103364371D02*
X133579979Y-103364371D01*
X133579979Y-103364371D02*
X133675217Y-103411990D01*
X133675217Y-103411990D02*
X133722836Y-103459609D01*
X133722836Y-103459609D02*
X133770455Y-103554847D01*
X133770455Y-103554847D02*
X133770455Y-103792942D01*
X133770455Y-103792942D02*
X133722836Y-103888180D01*
X133722836Y-103888180D02*
X133675217Y-103935800D01*
X133675217Y-103935800D02*
X133579979Y-103983419D01*
X133579979Y-103983419D02*
X133294265Y-103983419D01*
X133294265Y-103983419D02*
X133199027Y-103935800D01*
X133199027Y-103935800D02*
X133151408Y-103888180D01*
X127595884Y-96617419D02*
X127595884Y-95617419D01*
X127595884Y-95617419D02*
X127976836Y-95617419D01*
X127976836Y-95617419D02*
X128072074Y-95665038D01*
X128072074Y-95665038D02*
X128119693Y-95712657D01*
X128119693Y-95712657D02*
X128167312Y-95807895D01*
X128167312Y-95807895D02*
X128167312Y-95950752D01*
X128167312Y-95950752D02*
X128119693Y-96045990D01*
X128119693Y-96045990D02*
X128072074Y-96093609D01*
X128072074Y-96093609D02*
X127976836Y-96141228D01*
X127976836Y-96141228D02*
X127595884Y-96141228D01*
X128595884Y-96617419D02*
X128595884Y-95950752D01*
X128595884Y-95617419D02*
X128548265Y-95665038D01*
X128548265Y-95665038D02*
X128595884Y-95712657D01*
X128595884Y-95712657D02*
X128643503Y-95665038D01*
X128643503Y-95665038D02*
X128595884Y-95617419D01*
X128595884Y-95617419D02*
X128595884Y-95712657D01*
X129072074Y-95950752D02*
X129072074Y-96617419D01*
X129072074Y-96045990D02*
X129119693Y-95998371D01*
X129119693Y-95998371D02*
X129214931Y-95950752D01*
X129214931Y-95950752D02*
X129357788Y-95950752D01*
X129357788Y-95950752D02*
X129453026Y-95998371D01*
X129453026Y-95998371D02*
X129500645Y-96093609D01*
X129500645Y-96093609D02*
X129500645Y-96617419D01*
X129881598Y-95617419D02*
X130500645Y-95617419D01*
X130500645Y-95617419D02*
X130167312Y-95998371D01*
X130167312Y-95998371D02*
X130310169Y-95998371D01*
X130310169Y-95998371D02*
X130405407Y-96045990D01*
X130405407Y-96045990D02*
X130453026Y-96093609D01*
X130453026Y-96093609D02*
X130500645Y-96188847D01*
X130500645Y-96188847D02*
X130500645Y-96426942D01*
X130500645Y-96426942D02*
X130453026Y-96522180D01*
X130453026Y-96522180D02*
X130405407Y-96569800D01*
X130405407Y-96569800D02*
X130310169Y-96617419D01*
X130310169Y-96617419D02*
X130024455Y-96617419D01*
X130024455Y-96617419D02*
X129929217Y-96569800D01*
X129929217Y-96569800D02*
X129881598Y-96522180D01*
X131595884Y-95617419D02*
X132214931Y-95617419D01*
X132214931Y-95617419D02*
X131881598Y-95998371D01*
X131881598Y-95998371D02*
X132024455Y-95998371D01*
X132024455Y-95998371D02*
X132119693Y-96045990D01*
X132119693Y-96045990D02*
X132167312Y-96093609D01*
X132167312Y-96093609D02*
X132214931Y-96188847D01*
X132214931Y-96188847D02*
X132214931Y-96426942D01*
X132214931Y-96426942D02*
X132167312Y-96522180D01*
X132167312Y-96522180D02*
X132119693Y-96569800D01*
X132119693Y-96569800D02*
X132024455Y-96617419D01*
X132024455Y-96617419D02*
X131738741Y-96617419D01*
X131738741Y-96617419D02*
X131643503Y-96569800D01*
X131643503Y-96569800D02*
X131595884Y-96522180D01*
X132500646Y-95617419D02*
X132833979Y-96617419D01*
X132833979Y-96617419D02*
X133167312Y-95617419D01*
X133405408Y-95617419D02*
X134024455Y-95617419D01*
X134024455Y-95617419D02*
X133691122Y-95998371D01*
X133691122Y-95998371D02*
X133833979Y-95998371D01*
X133833979Y-95998371D02*
X133929217Y-96045990D01*
X133929217Y-96045990D02*
X133976836Y-96093609D01*
X133976836Y-96093609D02*
X134024455Y-96188847D01*
X134024455Y-96188847D02*
X134024455Y-96426942D01*
X134024455Y-96426942D02*
X133976836Y-96522180D01*
X133976836Y-96522180D02*
X133929217Y-96569800D01*
X133929217Y-96569800D02*
X133833979Y-96617419D01*
X133833979Y-96617419D02*
X133548265Y-96617419D01*
X133548265Y-96617419D02*
X133453027Y-96569800D01*
X133453027Y-96569800D02*
X133405408Y-96522180D01*
X127341884Y-107285419D02*
X127341884Y-106285419D01*
X127341884Y-106285419D02*
X127722836Y-106285419D01*
X127722836Y-106285419D02*
X127818074Y-106333038D01*
X127818074Y-106333038D02*
X127865693Y-106380657D01*
X127865693Y-106380657D02*
X127913312Y-106475895D01*
X127913312Y-106475895D02*
X127913312Y-106618752D01*
X127913312Y-106618752D02*
X127865693Y-106713990D01*
X127865693Y-106713990D02*
X127818074Y-106761609D01*
X127818074Y-106761609D02*
X127722836Y-106809228D01*
X127722836Y-106809228D02*
X127341884Y-106809228D01*
X128341884Y-107285419D02*
X128341884Y-106618752D01*
X128341884Y-106285419D02*
X128294265Y-106333038D01*
X128294265Y-106333038D02*
X128341884Y-106380657D01*
X128341884Y-106380657D02*
X128389503Y-106333038D01*
X128389503Y-106333038D02*
X128341884Y-106285419D01*
X128341884Y-106285419D02*
X128341884Y-106380657D01*
X128818074Y-106618752D02*
X128818074Y-107285419D01*
X128818074Y-106713990D02*
X128865693Y-106666371D01*
X128865693Y-106666371D02*
X128960931Y-106618752D01*
X128960931Y-106618752D02*
X129103788Y-106618752D01*
X129103788Y-106618752D02*
X129199026Y-106666371D01*
X129199026Y-106666371D02*
X129246645Y-106761609D01*
X129246645Y-106761609D02*
X129246645Y-107285419D01*
X130151407Y-106618752D02*
X130151407Y-107285419D01*
X129913312Y-106237800D02*
X129675217Y-106952085D01*
X129675217Y-106952085D02*
X130294264Y-106952085D01*
X131960931Y-106333038D02*
X131865693Y-106285419D01*
X131865693Y-106285419D02*
X131722836Y-106285419D01*
X131722836Y-106285419D02*
X131579979Y-106333038D01*
X131579979Y-106333038D02*
X131484741Y-106428276D01*
X131484741Y-106428276D02*
X131437122Y-106523514D01*
X131437122Y-106523514D02*
X131389503Y-106713990D01*
X131389503Y-106713990D02*
X131389503Y-106856847D01*
X131389503Y-106856847D02*
X131437122Y-107047323D01*
X131437122Y-107047323D02*
X131484741Y-107142561D01*
X131484741Y-107142561D02*
X131579979Y-107237800D01*
X131579979Y-107237800D02*
X131722836Y-107285419D01*
X131722836Y-107285419D02*
X131818074Y-107285419D01*
X131818074Y-107285419D02*
X131960931Y-107237800D01*
X131960931Y-107237800D02*
X132008550Y-107190180D01*
X132008550Y-107190180D02*
X132008550Y-106856847D01*
X132008550Y-106856847D02*
X131818074Y-106856847D01*
X132437122Y-107285419D02*
X132437122Y-106285419D01*
X132437122Y-106285419D02*
X133008550Y-107285419D01*
X133008550Y-107285419D02*
X133008550Y-106285419D01*
X133484741Y-107285419D02*
X133484741Y-106285419D01*
X133484741Y-106285419D02*
X133722836Y-106285419D01*
X133722836Y-106285419D02*
X133865693Y-106333038D01*
X133865693Y-106333038D02*
X133960931Y-106428276D01*
X133960931Y-106428276D02*
X134008550Y-106523514D01*
X134008550Y-106523514D02*
X134056169Y-106713990D01*
X134056169Y-106713990D02*
X134056169Y-106856847D01*
X134056169Y-106856847D02*
X134008550Y-107047323D01*
X134008550Y-107047323D02*
X133960931Y-107142561D01*
X133960931Y-107142561D02*
X133865693Y-107237800D01*
X133865693Y-107237800D02*
X133722836Y-107285419D01*
X133722836Y-107285419D02*
X133484741Y-107285419D01*
X127341884Y-100427419D02*
X127341884Y-99427419D01*
X127341884Y-99427419D02*
X127722836Y-99427419D01*
X127722836Y-99427419D02*
X127818074Y-99475038D01*
X127818074Y-99475038D02*
X127865693Y-99522657D01*
X127865693Y-99522657D02*
X127913312Y-99617895D01*
X127913312Y-99617895D02*
X127913312Y-99760752D01*
X127913312Y-99760752D02*
X127865693Y-99855990D01*
X127865693Y-99855990D02*
X127818074Y-99903609D01*
X127818074Y-99903609D02*
X127722836Y-99951228D01*
X127722836Y-99951228D02*
X127341884Y-99951228D01*
X128341884Y-100427419D02*
X128341884Y-99760752D01*
X128341884Y-99427419D02*
X128294265Y-99475038D01*
X128294265Y-99475038D02*
X128341884Y-99522657D01*
X128341884Y-99522657D02*
X128389503Y-99475038D01*
X128389503Y-99475038D02*
X128341884Y-99427419D01*
X128341884Y-99427419D02*
X128341884Y-99522657D01*
X128818074Y-99760752D02*
X128818074Y-100427419D01*
X128818074Y-99855990D02*
X128865693Y-99808371D01*
X128865693Y-99808371D02*
X128960931Y-99760752D01*
X128960931Y-99760752D02*
X129103788Y-99760752D01*
X129103788Y-99760752D02*
X129199026Y-99808371D01*
X129199026Y-99808371D02*
X129246645Y-99903609D01*
X129246645Y-99903609D02*
X129246645Y-100427419D01*
X129627598Y-99427419D02*
X130246645Y-99427419D01*
X130246645Y-99427419D02*
X129913312Y-99808371D01*
X129913312Y-99808371D02*
X130056169Y-99808371D01*
X130056169Y-99808371D02*
X130151407Y-99855990D01*
X130151407Y-99855990D02*
X130199026Y-99903609D01*
X130199026Y-99903609D02*
X130246645Y-99998847D01*
X130246645Y-99998847D02*
X130246645Y-100236942D01*
X130246645Y-100236942D02*
X130199026Y-100332180D01*
X130199026Y-100332180D02*
X130151407Y-100379800D01*
X130151407Y-100379800D02*
X130056169Y-100427419D01*
X130056169Y-100427419D02*
X129770455Y-100427419D01*
X129770455Y-100427419D02*
X129675217Y-100379800D01*
X129675217Y-100379800D02*
X129627598Y-100332180D01*
X131960931Y-99475038D02*
X131865693Y-99427419D01*
X131865693Y-99427419D02*
X131722836Y-99427419D01*
X131722836Y-99427419D02*
X131579979Y-99475038D01*
X131579979Y-99475038D02*
X131484741Y-99570276D01*
X131484741Y-99570276D02*
X131437122Y-99665514D01*
X131437122Y-99665514D02*
X131389503Y-99855990D01*
X131389503Y-99855990D02*
X131389503Y-99998847D01*
X131389503Y-99998847D02*
X131437122Y-100189323D01*
X131437122Y-100189323D02*
X131484741Y-100284561D01*
X131484741Y-100284561D02*
X131579979Y-100379800D01*
X131579979Y-100379800D02*
X131722836Y-100427419D01*
X131722836Y-100427419D02*
X131818074Y-100427419D01*
X131818074Y-100427419D02*
X131960931Y-100379800D01*
X131960931Y-100379800D02*
X132008550Y-100332180D01*
X132008550Y-100332180D02*
X132008550Y-99998847D01*
X132008550Y-99998847D02*
X131818074Y-99998847D01*
X132437122Y-100427419D02*
X132437122Y-99427419D01*
X132437122Y-99427419D02*
X133008550Y-100427419D01*
X133008550Y-100427419D02*
X133008550Y-99427419D01*
X133484741Y-100427419D02*
X133484741Y-99427419D01*
X133484741Y-99427419D02*
X133722836Y-99427419D01*
X133722836Y-99427419D02*
X133865693Y-99475038D01*
X133865693Y-99475038D02*
X133960931Y-99570276D01*
X133960931Y-99570276D02*
X134008550Y-99665514D01*
X134008550Y-99665514D02*
X134056169Y-99855990D01*
X134056169Y-99855990D02*
X134056169Y-99998847D01*
X134056169Y-99998847D02*
X134008550Y-100189323D01*
X134008550Y-100189323D02*
X133960931Y-100284561D01*
X133960931Y-100284561D02*
X133865693Y-100379800D01*
X133865693Y-100379800D02*
X133722836Y-100427419D01*
X133722836Y-100427419D02*
X133484741Y-100427419D01*
D11*
X109399819Y-147808333D02*
X110114104Y-147808333D01*
X110114104Y-147808333D02*
X110256961Y-147855952D01*
X110256961Y-147855952D02*
X110352200Y-147951190D01*
X110352200Y-147951190D02*
X110399819Y-148094047D01*
X110399819Y-148094047D02*
X110399819Y-148189285D01*
X110399819Y-147332142D02*
X109399819Y-147332142D01*
X109399819Y-147332142D02*
X109399819Y-146951190D01*
X109399819Y-146951190D02*
X109447438Y-146855952D01*
X109447438Y-146855952D02*
X109495057Y-146808333D01*
X109495057Y-146808333D02*
X109590295Y-146760714D01*
X109590295Y-146760714D02*
X109733152Y-146760714D01*
X109733152Y-146760714D02*
X109828390Y-146808333D01*
X109828390Y-146808333D02*
X109876009Y-146855952D01*
X109876009Y-146855952D02*
X109923628Y-146951190D01*
X109923628Y-146951190D02*
X109923628Y-147332142D01*
X109399819Y-145855952D02*
X109399819Y-146332142D01*
X109399819Y-146332142D02*
X109876009Y-146379761D01*
X109876009Y-146379761D02*
X109828390Y-146332142D01*
X109828390Y-146332142D02*
X109780771Y-146236904D01*
X109780771Y-146236904D02*
X109780771Y-145998809D01*
X109780771Y-145998809D02*
X109828390Y-145903571D01*
X109828390Y-145903571D02*
X109876009Y-145855952D01*
X109876009Y-145855952D02*
X109971247Y-145808333D01*
X109971247Y-145808333D02*
X110209342Y-145808333D01*
X110209342Y-145808333D02*
X110304580Y-145855952D01*
X110304580Y-145855952D02*
X110352200Y-145903571D01*
X110352200Y-145903571D02*
X110399819Y-145998809D01*
X110399819Y-145998809D02*
X110399819Y-146236904D01*
X110399819Y-146236904D02*
X110352200Y-146332142D01*
X110352200Y-146332142D02*
X110304580Y-146379761D01*
X184666666Y-112909819D02*
X184666666Y-113624104D01*
X184666666Y-113624104D02*
X184619047Y-113766961D01*
X184619047Y-113766961D02*
X184523809Y-113862200D01*
X184523809Y-113862200D02*
X184380952Y-113909819D01*
X184380952Y-113909819D02*
X184285714Y-113909819D01*
X185666666Y-113909819D02*
X185095238Y-113909819D01*
X185380952Y-113909819D02*
X185380952Y-112909819D01*
X185380952Y-112909819D02*
X185285714Y-113052676D01*
X185285714Y-113052676D02*
X185190476Y-113147914D01*
X185190476Y-113147914D02*
X185095238Y-113195533D01*
X106837142Y-109899819D02*
X106503809Y-109423628D01*
X106265714Y-109899819D02*
X106265714Y-108899819D01*
X106265714Y-108899819D02*
X106646666Y-108899819D01*
X106646666Y-108899819D02*
X106741904Y-108947438D01*
X106741904Y-108947438D02*
X106789523Y-108995057D01*
X106789523Y-108995057D02*
X106837142Y-109090295D01*
X106837142Y-109090295D02*
X106837142Y-109233152D01*
X106837142Y-109233152D02*
X106789523Y-109328390D01*
X106789523Y-109328390D02*
X106741904Y-109376009D01*
X106741904Y-109376009D02*
X106646666Y-109423628D01*
X106646666Y-109423628D02*
X106265714Y-109423628D01*
X107789523Y-109899819D02*
X107218095Y-109899819D01*
X107503809Y-109899819D02*
X107503809Y-108899819D01*
X107503809Y-108899819D02*
X107408571Y-109042676D01*
X107408571Y-109042676D02*
X107313333Y-109137914D01*
X107313333Y-109137914D02*
X107218095Y-109185533D01*
X108646666Y-109233152D02*
X108646666Y-109899819D01*
X108408571Y-108852200D02*
X108170476Y-109566485D01*
X108170476Y-109566485D02*
X108789523Y-109566485D01*
X106837142Y-130473819D02*
X106503809Y-129997628D01*
X106265714Y-130473819D02*
X106265714Y-129473819D01*
X106265714Y-129473819D02*
X106646666Y-129473819D01*
X106646666Y-129473819D02*
X106741904Y-129521438D01*
X106741904Y-129521438D02*
X106789523Y-129569057D01*
X106789523Y-129569057D02*
X106837142Y-129664295D01*
X106837142Y-129664295D02*
X106837142Y-129807152D01*
X106837142Y-129807152D02*
X106789523Y-129902390D01*
X106789523Y-129902390D02*
X106741904Y-129950009D01*
X106741904Y-129950009D02*
X106646666Y-129997628D01*
X106646666Y-129997628D02*
X106265714Y-129997628D01*
X107170476Y-129473819D02*
X107789523Y-129473819D01*
X107789523Y-129473819D02*
X107456190Y-129854771D01*
X107456190Y-129854771D02*
X107599047Y-129854771D01*
X107599047Y-129854771D02*
X107694285Y-129902390D01*
X107694285Y-129902390D02*
X107741904Y-129950009D01*
X107741904Y-129950009D02*
X107789523Y-130045247D01*
X107789523Y-130045247D02*
X107789523Y-130283342D01*
X107789523Y-130283342D02*
X107741904Y-130378580D01*
X107741904Y-130378580D02*
X107694285Y-130426200D01*
X107694285Y-130426200D02*
X107599047Y-130473819D01*
X107599047Y-130473819D02*
X107313333Y-130473819D01*
X107313333Y-130473819D02*
X107218095Y-130426200D01*
X107218095Y-130426200D02*
X107170476Y-130378580D01*
X108741904Y-130473819D02*
X108170476Y-130473819D01*
X108456190Y-130473819D02*
X108456190Y-129473819D01*
X108456190Y-129473819D02*
X108360952Y-129616676D01*
X108360952Y-129616676D02*
X108265714Y-129711914D01*
X108265714Y-129711914D02*
X108170476Y-129759533D01*
X136401666Y-104547819D02*
X136401666Y-105262104D01*
X136401666Y-105262104D02*
X136354047Y-105404961D01*
X136354047Y-105404961D02*
X136258809Y-105500200D01*
X136258809Y-105500200D02*
X136115952Y-105547819D01*
X136115952Y-105547819D02*
X136020714Y-105547819D01*
X136877857Y-105547819D02*
X136877857Y-104547819D01*
X136877857Y-104547819D02*
X137258809Y-104547819D01*
X137258809Y-104547819D02*
X137354047Y-104595438D01*
X137354047Y-104595438D02*
X137401666Y-104643057D01*
X137401666Y-104643057D02*
X137449285Y-104738295D01*
X137449285Y-104738295D02*
X137449285Y-104881152D01*
X137449285Y-104881152D02*
X137401666Y-104976390D01*
X137401666Y-104976390D02*
X137354047Y-105024009D01*
X137354047Y-105024009D02*
X137258809Y-105071628D01*
X137258809Y-105071628D02*
X136877857Y-105071628D01*
X138306428Y-104881152D02*
X138306428Y-105547819D01*
X138068333Y-104500200D02*
X137830238Y-105214485D01*
X137830238Y-105214485D02*
X138449285Y-105214485D01*
X106837142Y-76879819D02*
X106503809Y-76403628D01*
X106265714Y-76879819D02*
X106265714Y-75879819D01*
X106265714Y-75879819D02*
X106646666Y-75879819D01*
X106646666Y-75879819D02*
X106741904Y-75927438D01*
X106741904Y-75927438D02*
X106789523Y-75975057D01*
X106789523Y-75975057D02*
X106837142Y-76070295D01*
X106837142Y-76070295D02*
X106837142Y-76213152D01*
X106837142Y-76213152D02*
X106789523Y-76308390D01*
X106789523Y-76308390D02*
X106741904Y-76356009D01*
X106741904Y-76356009D02*
X106646666Y-76403628D01*
X106646666Y-76403628D02*
X106265714Y-76403628D01*
X107218095Y-75975057D02*
X107265714Y-75927438D01*
X107265714Y-75927438D02*
X107360952Y-75879819D01*
X107360952Y-75879819D02*
X107599047Y-75879819D01*
X107599047Y-75879819D02*
X107694285Y-75927438D01*
X107694285Y-75927438D02*
X107741904Y-75975057D01*
X107741904Y-75975057D02*
X107789523Y-76070295D01*
X107789523Y-76070295D02*
X107789523Y-76165533D01*
X107789523Y-76165533D02*
X107741904Y-76308390D01*
X107741904Y-76308390D02*
X107170476Y-76879819D01*
X107170476Y-76879819D02*
X107789523Y-76879819D01*
X108408571Y-75879819D02*
X108503809Y-75879819D01*
X108503809Y-75879819D02*
X108599047Y-75927438D01*
X108599047Y-75927438D02*
X108646666Y-75975057D01*
X108646666Y-75975057D02*
X108694285Y-76070295D01*
X108694285Y-76070295D02*
X108741904Y-76260771D01*
X108741904Y-76260771D02*
X108741904Y-76498866D01*
X108741904Y-76498866D02*
X108694285Y-76689342D01*
X108694285Y-76689342D02*
X108646666Y-76784580D01*
X108646666Y-76784580D02*
X108599047Y-76832200D01*
X108599047Y-76832200D02*
X108503809Y-76879819D01*
X108503809Y-76879819D02*
X108408571Y-76879819D01*
X108408571Y-76879819D02*
X108313333Y-76832200D01*
X108313333Y-76832200D02*
X108265714Y-76784580D01*
X108265714Y-76784580D02*
X108218095Y-76689342D01*
X108218095Y-76689342D02*
X108170476Y-76498866D01*
X108170476Y-76498866D02*
X108170476Y-76260771D01*
X108170476Y-76260771D02*
X108218095Y-76070295D01*
X108218095Y-76070295D02*
X108265714Y-75975057D01*
X108265714Y-75975057D02*
X108313333Y-75927438D01*
X108313333Y-75927438D02*
X108408571Y-75879819D01*
X106837142Y-122599819D02*
X106503809Y-122123628D01*
X106265714Y-122599819D02*
X106265714Y-121599819D01*
X106265714Y-121599819D02*
X106646666Y-121599819D01*
X106646666Y-121599819D02*
X106741904Y-121647438D01*
X106741904Y-121647438D02*
X106789523Y-121695057D01*
X106789523Y-121695057D02*
X106837142Y-121790295D01*
X106837142Y-121790295D02*
X106837142Y-121933152D01*
X106837142Y-121933152D02*
X106789523Y-122028390D01*
X106789523Y-122028390D02*
X106741904Y-122076009D01*
X106741904Y-122076009D02*
X106646666Y-122123628D01*
X106646666Y-122123628D02*
X106265714Y-122123628D01*
X107218095Y-121695057D02*
X107265714Y-121647438D01*
X107265714Y-121647438D02*
X107360952Y-121599819D01*
X107360952Y-121599819D02*
X107599047Y-121599819D01*
X107599047Y-121599819D02*
X107694285Y-121647438D01*
X107694285Y-121647438D02*
X107741904Y-121695057D01*
X107741904Y-121695057D02*
X107789523Y-121790295D01*
X107789523Y-121790295D02*
X107789523Y-121885533D01*
X107789523Y-121885533D02*
X107741904Y-122028390D01*
X107741904Y-122028390D02*
X107170476Y-122599819D01*
X107170476Y-122599819D02*
X107789523Y-122599819D01*
X108360952Y-122028390D02*
X108265714Y-121980771D01*
X108265714Y-121980771D02*
X108218095Y-121933152D01*
X108218095Y-121933152D02*
X108170476Y-121837914D01*
X108170476Y-121837914D02*
X108170476Y-121790295D01*
X108170476Y-121790295D02*
X108218095Y-121695057D01*
X108218095Y-121695057D02*
X108265714Y-121647438D01*
X108265714Y-121647438D02*
X108360952Y-121599819D01*
X108360952Y-121599819D02*
X108551428Y-121599819D01*
X108551428Y-121599819D02*
X108646666Y-121647438D01*
X108646666Y-121647438D02*
X108694285Y-121695057D01*
X108694285Y-121695057D02*
X108741904Y-121790295D01*
X108741904Y-121790295D02*
X108741904Y-121837914D01*
X108741904Y-121837914D02*
X108694285Y-121933152D01*
X108694285Y-121933152D02*
X108646666Y-121980771D01*
X108646666Y-121980771D02*
X108551428Y-122028390D01*
X108551428Y-122028390D02*
X108360952Y-122028390D01*
X108360952Y-122028390D02*
X108265714Y-122076009D01*
X108265714Y-122076009D02*
X108218095Y-122123628D01*
X108218095Y-122123628D02*
X108170476Y-122218866D01*
X108170476Y-122218866D02*
X108170476Y-122409342D01*
X108170476Y-122409342D02*
X108218095Y-122504580D01*
X108218095Y-122504580D02*
X108265714Y-122552200D01*
X108265714Y-122552200D02*
X108360952Y-122599819D01*
X108360952Y-122599819D02*
X108551428Y-122599819D01*
X108551428Y-122599819D02*
X108646666Y-122552200D01*
X108646666Y-122552200D02*
X108694285Y-122504580D01*
X108694285Y-122504580D02*
X108741904Y-122409342D01*
X108741904Y-122409342D02*
X108741904Y-122218866D01*
X108741904Y-122218866D02*
X108694285Y-122123628D01*
X108694285Y-122123628D02*
X108646666Y-122076009D01*
X108646666Y-122076009D02*
X108551428Y-122028390D01*
X106837142Y-117519819D02*
X106503809Y-117043628D01*
X106265714Y-117519819D02*
X106265714Y-116519819D01*
X106265714Y-116519819D02*
X106646666Y-116519819D01*
X106646666Y-116519819D02*
X106741904Y-116567438D01*
X106741904Y-116567438D02*
X106789523Y-116615057D01*
X106789523Y-116615057D02*
X106837142Y-116710295D01*
X106837142Y-116710295D02*
X106837142Y-116853152D01*
X106837142Y-116853152D02*
X106789523Y-116948390D01*
X106789523Y-116948390D02*
X106741904Y-116996009D01*
X106741904Y-116996009D02*
X106646666Y-117043628D01*
X106646666Y-117043628D02*
X106265714Y-117043628D01*
X107789523Y-117519819D02*
X107218095Y-117519819D01*
X107503809Y-117519819D02*
X107503809Y-116519819D01*
X107503809Y-116519819D02*
X107408571Y-116662676D01*
X107408571Y-116662676D02*
X107313333Y-116757914D01*
X107313333Y-116757914D02*
X107218095Y-116805533D01*
X108122857Y-116519819D02*
X108789523Y-116519819D01*
X108789523Y-116519819D02*
X108360952Y-117519819D01*
X99725142Y-135299819D02*
X99391809Y-134823628D01*
X99153714Y-135299819D02*
X99153714Y-134299819D01*
X99153714Y-134299819D02*
X99534666Y-134299819D01*
X99534666Y-134299819D02*
X99629904Y-134347438D01*
X99629904Y-134347438D02*
X99677523Y-134395057D01*
X99677523Y-134395057D02*
X99725142Y-134490295D01*
X99725142Y-134490295D02*
X99725142Y-134633152D01*
X99725142Y-134633152D02*
X99677523Y-134728390D01*
X99677523Y-134728390D02*
X99629904Y-134776009D01*
X99629904Y-134776009D02*
X99534666Y-134823628D01*
X99534666Y-134823628D02*
X99153714Y-134823628D01*
X100058476Y-134299819D02*
X100677523Y-134299819D01*
X100677523Y-134299819D02*
X100344190Y-134680771D01*
X100344190Y-134680771D02*
X100487047Y-134680771D01*
X100487047Y-134680771D02*
X100582285Y-134728390D01*
X100582285Y-134728390D02*
X100629904Y-134776009D01*
X100629904Y-134776009D02*
X100677523Y-134871247D01*
X100677523Y-134871247D02*
X100677523Y-135109342D01*
X100677523Y-135109342D02*
X100629904Y-135204580D01*
X100629904Y-135204580D02*
X100582285Y-135252200D01*
X100582285Y-135252200D02*
X100487047Y-135299819D01*
X100487047Y-135299819D02*
X100201333Y-135299819D01*
X100201333Y-135299819D02*
X100106095Y-135252200D01*
X100106095Y-135252200D02*
X100058476Y-135204580D01*
X101010857Y-134299819D02*
X101629904Y-134299819D01*
X101629904Y-134299819D02*
X101296571Y-134680771D01*
X101296571Y-134680771D02*
X101439428Y-134680771D01*
X101439428Y-134680771D02*
X101534666Y-134728390D01*
X101534666Y-134728390D02*
X101582285Y-134776009D01*
X101582285Y-134776009D02*
X101629904Y-134871247D01*
X101629904Y-134871247D02*
X101629904Y-135109342D01*
X101629904Y-135109342D02*
X101582285Y-135204580D01*
X101582285Y-135204580D02*
X101534666Y-135252200D01*
X101534666Y-135252200D02*
X101439428Y-135299819D01*
X101439428Y-135299819D02*
X101153714Y-135299819D01*
X101153714Y-135299819D02*
X101058476Y-135252200D01*
X101058476Y-135252200D02*
X101010857Y-135204580D01*
X99725142Y-137839819D02*
X99391809Y-137363628D01*
X99153714Y-137839819D02*
X99153714Y-136839819D01*
X99153714Y-136839819D02*
X99534666Y-136839819D01*
X99534666Y-136839819D02*
X99629904Y-136887438D01*
X99629904Y-136887438D02*
X99677523Y-136935057D01*
X99677523Y-136935057D02*
X99725142Y-137030295D01*
X99725142Y-137030295D02*
X99725142Y-137173152D01*
X99725142Y-137173152D02*
X99677523Y-137268390D01*
X99677523Y-137268390D02*
X99629904Y-137316009D01*
X99629904Y-137316009D02*
X99534666Y-137363628D01*
X99534666Y-137363628D02*
X99153714Y-137363628D01*
X100058476Y-136839819D02*
X100677523Y-136839819D01*
X100677523Y-136839819D02*
X100344190Y-137220771D01*
X100344190Y-137220771D02*
X100487047Y-137220771D01*
X100487047Y-137220771D02*
X100582285Y-137268390D01*
X100582285Y-137268390D02*
X100629904Y-137316009D01*
X100629904Y-137316009D02*
X100677523Y-137411247D01*
X100677523Y-137411247D02*
X100677523Y-137649342D01*
X100677523Y-137649342D02*
X100629904Y-137744580D01*
X100629904Y-137744580D02*
X100582285Y-137792200D01*
X100582285Y-137792200D02*
X100487047Y-137839819D01*
X100487047Y-137839819D02*
X100201333Y-137839819D01*
X100201333Y-137839819D02*
X100106095Y-137792200D01*
X100106095Y-137792200D02*
X100058476Y-137744580D01*
X101534666Y-137173152D02*
X101534666Y-137839819D01*
X101296571Y-136792200D02*
X101058476Y-137506485D01*
X101058476Y-137506485D02*
X101677523Y-137506485D01*
X106837142Y-120059819D02*
X106503809Y-119583628D01*
X106265714Y-120059819D02*
X106265714Y-119059819D01*
X106265714Y-119059819D02*
X106646666Y-119059819D01*
X106646666Y-119059819D02*
X106741904Y-119107438D01*
X106741904Y-119107438D02*
X106789523Y-119155057D01*
X106789523Y-119155057D02*
X106837142Y-119250295D01*
X106837142Y-119250295D02*
X106837142Y-119393152D01*
X106837142Y-119393152D02*
X106789523Y-119488390D01*
X106789523Y-119488390D02*
X106741904Y-119536009D01*
X106741904Y-119536009D02*
X106646666Y-119583628D01*
X106646666Y-119583628D02*
X106265714Y-119583628D01*
X107789523Y-120059819D02*
X107218095Y-120059819D01*
X107503809Y-120059819D02*
X107503809Y-119059819D01*
X107503809Y-119059819D02*
X107408571Y-119202676D01*
X107408571Y-119202676D02*
X107313333Y-119297914D01*
X107313333Y-119297914D02*
X107218095Y-119345533D01*
X108360952Y-119488390D02*
X108265714Y-119440771D01*
X108265714Y-119440771D02*
X108218095Y-119393152D01*
X108218095Y-119393152D02*
X108170476Y-119297914D01*
X108170476Y-119297914D02*
X108170476Y-119250295D01*
X108170476Y-119250295D02*
X108218095Y-119155057D01*
X108218095Y-119155057D02*
X108265714Y-119107438D01*
X108265714Y-119107438D02*
X108360952Y-119059819D01*
X108360952Y-119059819D02*
X108551428Y-119059819D01*
X108551428Y-119059819D02*
X108646666Y-119107438D01*
X108646666Y-119107438D02*
X108694285Y-119155057D01*
X108694285Y-119155057D02*
X108741904Y-119250295D01*
X108741904Y-119250295D02*
X108741904Y-119297914D01*
X108741904Y-119297914D02*
X108694285Y-119393152D01*
X108694285Y-119393152D02*
X108646666Y-119440771D01*
X108646666Y-119440771D02*
X108551428Y-119488390D01*
X108551428Y-119488390D02*
X108360952Y-119488390D01*
X108360952Y-119488390D02*
X108265714Y-119536009D01*
X108265714Y-119536009D02*
X108218095Y-119583628D01*
X108218095Y-119583628D02*
X108170476Y-119678866D01*
X108170476Y-119678866D02*
X108170476Y-119869342D01*
X108170476Y-119869342D02*
X108218095Y-119964580D01*
X108218095Y-119964580D02*
X108265714Y-120012200D01*
X108265714Y-120012200D02*
X108360952Y-120059819D01*
X108360952Y-120059819D02*
X108551428Y-120059819D01*
X108551428Y-120059819D02*
X108646666Y-120012200D01*
X108646666Y-120012200D02*
X108694285Y-119964580D01*
X108694285Y-119964580D02*
X108741904Y-119869342D01*
X108741904Y-119869342D02*
X108741904Y-119678866D01*
X108741904Y-119678866D02*
X108694285Y-119583628D01*
X108694285Y-119583628D02*
X108646666Y-119536009D01*
X108646666Y-119536009D02*
X108551428Y-119488390D01*
X106837142Y-125139819D02*
X106503809Y-124663628D01*
X106265714Y-125139819D02*
X106265714Y-124139819D01*
X106265714Y-124139819D02*
X106646666Y-124139819D01*
X106646666Y-124139819D02*
X106741904Y-124187438D01*
X106741904Y-124187438D02*
X106789523Y-124235057D01*
X106789523Y-124235057D02*
X106837142Y-124330295D01*
X106837142Y-124330295D02*
X106837142Y-124473152D01*
X106837142Y-124473152D02*
X106789523Y-124568390D01*
X106789523Y-124568390D02*
X106741904Y-124616009D01*
X106741904Y-124616009D02*
X106646666Y-124663628D01*
X106646666Y-124663628D02*
X106265714Y-124663628D01*
X107218095Y-124235057D02*
X107265714Y-124187438D01*
X107265714Y-124187438D02*
X107360952Y-124139819D01*
X107360952Y-124139819D02*
X107599047Y-124139819D01*
X107599047Y-124139819D02*
X107694285Y-124187438D01*
X107694285Y-124187438D02*
X107741904Y-124235057D01*
X107741904Y-124235057D02*
X107789523Y-124330295D01*
X107789523Y-124330295D02*
X107789523Y-124425533D01*
X107789523Y-124425533D02*
X107741904Y-124568390D01*
X107741904Y-124568390D02*
X107170476Y-125139819D01*
X107170476Y-125139819D02*
X107789523Y-125139819D01*
X108265714Y-125139819D02*
X108456190Y-125139819D01*
X108456190Y-125139819D02*
X108551428Y-125092200D01*
X108551428Y-125092200D02*
X108599047Y-125044580D01*
X108599047Y-125044580D02*
X108694285Y-124901723D01*
X108694285Y-124901723D02*
X108741904Y-124711247D01*
X108741904Y-124711247D02*
X108741904Y-124330295D01*
X108741904Y-124330295D02*
X108694285Y-124235057D01*
X108694285Y-124235057D02*
X108646666Y-124187438D01*
X108646666Y-124187438D02*
X108551428Y-124139819D01*
X108551428Y-124139819D02*
X108360952Y-124139819D01*
X108360952Y-124139819D02*
X108265714Y-124187438D01*
X108265714Y-124187438D02*
X108218095Y-124235057D01*
X108218095Y-124235057D02*
X108170476Y-124330295D01*
X108170476Y-124330295D02*
X108170476Y-124568390D01*
X108170476Y-124568390D02*
X108218095Y-124663628D01*
X108218095Y-124663628D02*
X108265714Y-124711247D01*
X108265714Y-124711247D02*
X108360952Y-124758866D01*
X108360952Y-124758866D02*
X108551428Y-124758866D01*
X108551428Y-124758866D02*
X108646666Y-124711247D01*
X108646666Y-124711247D02*
X108694285Y-124663628D01*
X108694285Y-124663628D02*
X108741904Y-124568390D01*
X168132819Y-98657857D02*
X167656628Y-98991190D01*
X168132819Y-99229285D02*
X167132819Y-99229285D01*
X167132819Y-99229285D02*
X167132819Y-98848333D01*
X167132819Y-98848333D02*
X167180438Y-98753095D01*
X167180438Y-98753095D02*
X167228057Y-98705476D01*
X167228057Y-98705476D02*
X167323295Y-98657857D01*
X167323295Y-98657857D02*
X167466152Y-98657857D01*
X167466152Y-98657857D02*
X167561390Y-98705476D01*
X167561390Y-98705476D02*
X167609009Y-98753095D01*
X167609009Y-98753095D02*
X167656628Y-98848333D01*
X167656628Y-98848333D02*
X167656628Y-99229285D01*
X167228057Y-98276904D02*
X167180438Y-98229285D01*
X167180438Y-98229285D02*
X167132819Y-98134047D01*
X167132819Y-98134047D02*
X167132819Y-97895952D01*
X167132819Y-97895952D02*
X167180438Y-97800714D01*
X167180438Y-97800714D02*
X167228057Y-97753095D01*
X167228057Y-97753095D02*
X167323295Y-97705476D01*
X167323295Y-97705476D02*
X167418533Y-97705476D01*
X167418533Y-97705476D02*
X167561390Y-97753095D01*
X167561390Y-97753095D02*
X168132819Y-98324523D01*
X168132819Y-98324523D02*
X168132819Y-97705476D01*
X167132819Y-97372142D02*
X167132819Y-96705476D01*
X167132819Y-96705476D02*
X168132819Y-97134047D01*
X185643009Y-59938618D02*
X185643009Y-59605285D01*
X186166819Y-59462428D02*
X186166819Y-59938618D01*
X186166819Y-59938618D02*
X185166819Y-59938618D01*
X185166819Y-59938618D02*
X185166819Y-59462428D01*
X185166819Y-59129094D02*
X186166819Y-58462428D01*
X185166819Y-58462428D02*
X186166819Y-59129094D01*
X185166819Y-58224332D02*
X185166819Y-57652904D01*
X186166819Y-57938618D02*
X185166819Y-57938618D01*
X186166819Y-56795761D02*
X186166819Y-57367189D01*
X186166819Y-57081475D02*
X185166819Y-57081475D01*
X185166819Y-57081475D02*
X185309676Y-57176713D01*
X185309676Y-57176713D02*
X185404914Y-57271951D01*
X185404914Y-57271951D02*
X185452533Y-57367189D01*
X136401666Y-100997819D02*
X136401666Y-101712104D01*
X136401666Y-101712104D02*
X136354047Y-101854961D01*
X136354047Y-101854961D02*
X136258809Y-101950200D01*
X136258809Y-101950200D02*
X136115952Y-101997819D01*
X136115952Y-101997819D02*
X136020714Y-101997819D01*
X136877857Y-101997819D02*
X136877857Y-100997819D01*
X136877857Y-100997819D02*
X137258809Y-100997819D01*
X137258809Y-100997819D02*
X137354047Y-101045438D01*
X137354047Y-101045438D02*
X137401666Y-101093057D01*
X137401666Y-101093057D02*
X137449285Y-101188295D01*
X137449285Y-101188295D02*
X137449285Y-101331152D01*
X137449285Y-101331152D02*
X137401666Y-101426390D01*
X137401666Y-101426390D02*
X137354047Y-101474009D01*
X137354047Y-101474009D02*
X137258809Y-101521628D01*
X137258809Y-101521628D02*
X136877857Y-101521628D01*
X137782619Y-100997819D02*
X138401666Y-100997819D01*
X138401666Y-100997819D02*
X138068333Y-101378771D01*
X138068333Y-101378771D02*
X138211190Y-101378771D01*
X138211190Y-101378771D02*
X138306428Y-101426390D01*
X138306428Y-101426390D02*
X138354047Y-101474009D01*
X138354047Y-101474009D02*
X138401666Y-101569247D01*
X138401666Y-101569247D02*
X138401666Y-101807342D01*
X138401666Y-101807342D02*
X138354047Y-101902580D01*
X138354047Y-101902580D02*
X138306428Y-101950200D01*
X138306428Y-101950200D02*
X138211190Y-101997819D01*
X138211190Y-101997819D02*
X137925476Y-101997819D01*
X137925476Y-101997819D02*
X137830238Y-101950200D01*
X137830238Y-101950200D02*
X137782619Y-101902580D01*
X106805333Y-69259819D02*
X106472000Y-68783628D01*
X106233905Y-69259819D02*
X106233905Y-68259819D01*
X106233905Y-68259819D02*
X106614857Y-68259819D01*
X106614857Y-68259819D02*
X106710095Y-68307438D01*
X106710095Y-68307438D02*
X106757714Y-68355057D01*
X106757714Y-68355057D02*
X106805333Y-68450295D01*
X106805333Y-68450295D02*
X106805333Y-68593152D01*
X106805333Y-68593152D02*
X106757714Y-68688390D01*
X106757714Y-68688390D02*
X106710095Y-68736009D01*
X106710095Y-68736009D02*
X106614857Y-68783628D01*
X106614857Y-68783628D02*
X106233905Y-68783628D01*
X107757714Y-69259819D02*
X107186286Y-69259819D01*
X107472000Y-69259819D02*
X107472000Y-68259819D01*
X107472000Y-68259819D02*
X107376762Y-68402676D01*
X107376762Y-68402676D02*
X107281524Y-68497914D01*
X107281524Y-68497914D02*
X107186286Y-68545533D01*
X160514819Y-101213857D02*
X160038628Y-101547190D01*
X160514819Y-101785285D02*
X159514819Y-101785285D01*
X159514819Y-101785285D02*
X159514819Y-101404333D01*
X159514819Y-101404333D02*
X159562438Y-101309095D01*
X159562438Y-101309095D02*
X159610057Y-101261476D01*
X159610057Y-101261476D02*
X159705295Y-101213857D01*
X159705295Y-101213857D02*
X159848152Y-101213857D01*
X159848152Y-101213857D02*
X159943390Y-101261476D01*
X159943390Y-101261476D02*
X159991009Y-101309095D01*
X159991009Y-101309095D02*
X160038628Y-101404333D01*
X160038628Y-101404333D02*
X160038628Y-101785285D01*
X159514819Y-100880523D02*
X159514819Y-100261476D01*
X159514819Y-100261476D02*
X159895771Y-100594809D01*
X159895771Y-100594809D02*
X159895771Y-100451952D01*
X159895771Y-100451952D02*
X159943390Y-100356714D01*
X159943390Y-100356714D02*
X159991009Y-100309095D01*
X159991009Y-100309095D02*
X160086247Y-100261476D01*
X160086247Y-100261476D02*
X160324342Y-100261476D01*
X160324342Y-100261476D02*
X160419580Y-100309095D01*
X160419580Y-100309095D02*
X160467200Y-100356714D01*
X160467200Y-100356714D02*
X160514819Y-100451952D01*
X160514819Y-100451952D02*
X160514819Y-100737666D01*
X160514819Y-100737666D02*
X160467200Y-100832904D01*
X160467200Y-100832904D02*
X160419580Y-100880523D01*
X159943390Y-99690047D02*
X159895771Y-99785285D01*
X159895771Y-99785285D02*
X159848152Y-99832904D01*
X159848152Y-99832904D02*
X159752914Y-99880523D01*
X159752914Y-99880523D02*
X159705295Y-99880523D01*
X159705295Y-99880523D02*
X159610057Y-99832904D01*
X159610057Y-99832904D02*
X159562438Y-99785285D01*
X159562438Y-99785285D02*
X159514819Y-99690047D01*
X159514819Y-99690047D02*
X159514819Y-99499571D01*
X159514819Y-99499571D02*
X159562438Y-99404333D01*
X159562438Y-99404333D02*
X159610057Y-99356714D01*
X159610057Y-99356714D02*
X159705295Y-99309095D01*
X159705295Y-99309095D02*
X159752914Y-99309095D01*
X159752914Y-99309095D02*
X159848152Y-99356714D01*
X159848152Y-99356714D02*
X159895771Y-99404333D01*
X159895771Y-99404333D02*
X159943390Y-99499571D01*
X159943390Y-99499571D02*
X159943390Y-99690047D01*
X159943390Y-99690047D02*
X159991009Y-99785285D01*
X159991009Y-99785285D02*
X160038628Y-99832904D01*
X160038628Y-99832904D02*
X160133866Y-99880523D01*
X160133866Y-99880523D02*
X160324342Y-99880523D01*
X160324342Y-99880523D02*
X160419580Y-99832904D01*
X160419580Y-99832904D02*
X160467200Y-99785285D01*
X160467200Y-99785285D02*
X160514819Y-99690047D01*
X160514819Y-99690047D02*
X160514819Y-99499571D01*
X160514819Y-99499571D02*
X160467200Y-99404333D01*
X160467200Y-99404333D02*
X160419580Y-99356714D01*
X160419580Y-99356714D02*
X160324342Y-99309095D01*
X160324342Y-99309095D02*
X160133866Y-99309095D01*
X160133866Y-99309095D02*
X160038628Y-99356714D01*
X160038628Y-99356714D02*
X159991009Y-99404333D01*
X159991009Y-99404333D02*
X159943390Y-99499571D01*
X106805333Y-92119819D02*
X106472000Y-91643628D01*
X106233905Y-92119819D02*
X106233905Y-91119819D01*
X106233905Y-91119819D02*
X106614857Y-91119819D01*
X106614857Y-91119819D02*
X106710095Y-91167438D01*
X106710095Y-91167438D02*
X106757714Y-91215057D01*
X106757714Y-91215057D02*
X106805333Y-91310295D01*
X106805333Y-91310295D02*
X106805333Y-91453152D01*
X106805333Y-91453152D02*
X106757714Y-91548390D01*
X106757714Y-91548390D02*
X106710095Y-91596009D01*
X106710095Y-91596009D02*
X106614857Y-91643628D01*
X106614857Y-91643628D02*
X106233905Y-91643628D01*
X107138667Y-91119819D02*
X107805333Y-91119819D01*
X107805333Y-91119819D02*
X107376762Y-92119819D01*
X156448819Y-97387857D02*
X155972628Y-97721190D01*
X156448819Y-97959285D02*
X155448819Y-97959285D01*
X155448819Y-97959285D02*
X155448819Y-97578333D01*
X155448819Y-97578333D02*
X155496438Y-97483095D01*
X155496438Y-97483095D02*
X155544057Y-97435476D01*
X155544057Y-97435476D02*
X155639295Y-97387857D01*
X155639295Y-97387857D02*
X155782152Y-97387857D01*
X155782152Y-97387857D02*
X155877390Y-97435476D01*
X155877390Y-97435476D02*
X155925009Y-97483095D01*
X155925009Y-97483095D02*
X155972628Y-97578333D01*
X155972628Y-97578333D02*
X155972628Y-97959285D01*
X155448819Y-97054523D02*
X155448819Y-96435476D01*
X155448819Y-96435476D02*
X155829771Y-96768809D01*
X155829771Y-96768809D02*
X155829771Y-96625952D01*
X155829771Y-96625952D02*
X155877390Y-96530714D01*
X155877390Y-96530714D02*
X155925009Y-96483095D01*
X155925009Y-96483095D02*
X156020247Y-96435476D01*
X156020247Y-96435476D02*
X156258342Y-96435476D01*
X156258342Y-96435476D02*
X156353580Y-96483095D01*
X156353580Y-96483095D02*
X156401200Y-96530714D01*
X156401200Y-96530714D02*
X156448819Y-96625952D01*
X156448819Y-96625952D02*
X156448819Y-96911666D01*
X156448819Y-96911666D02*
X156401200Y-97006904D01*
X156401200Y-97006904D02*
X156353580Y-97054523D01*
X156448819Y-95959285D02*
X156448819Y-95768809D01*
X156448819Y-95768809D02*
X156401200Y-95673571D01*
X156401200Y-95673571D02*
X156353580Y-95625952D01*
X156353580Y-95625952D02*
X156210723Y-95530714D01*
X156210723Y-95530714D02*
X156020247Y-95483095D01*
X156020247Y-95483095D02*
X155639295Y-95483095D01*
X155639295Y-95483095D02*
X155544057Y-95530714D01*
X155544057Y-95530714D02*
X155496438Y-95578333D01*
X155496438Y-95578333D02*
X155448819Y-95673571D01*
X155448819Y-95673571D02*
X155448819Y-95864047D01*
X155448819Y-95864047D02*
X155496438Y-95959285D01*
X155496438Y-95959285D02*
X155544057Y-96006904D01*
X155544057Y-96006904D02*
X155639295Y-96054523D01*
X155639295Y-96054523D02*
X155877390Y-96054523D01*
X155877390Y-96054523D02*
X155972628Y-96006904D01*
X155972628Y-96006904D02*
X156020247Y-95959285D01*
X156020247Y-95959285D02*
X156067866Y-95864047D01*
X156067866Y-95864047D02*
X156067866Y-95673571D01*
X156067866Y-95673571D02*
X156020247Y-95578333D01*
X156020247Y-95578333D02*
X155972628Y-95530714D01*
X155972628Y-95530714D02*
X155877390Y-95483095D01*
X109359142Y-142034819D02*
X109025809Y-141558628D01*
X108787714Y-142034819D02*
X108787714Y-141034819D01*
X108787714Y-141034819D02*
X109168666Y-141034819D01*
X109168666Y-141034819D02*
X109263904Y-141082438D01*
X109263904Y-141082438D02*
X109311523Y-141130057D01*
X109311523Y-141130057D02*
X109359142Y-141225295D01*
X109359142Y-141225295D02*
X109359142Y-141368152D01*
X109359142Y-141368152D02*
X109311523Y-141463390D01*
X109311523Y-141463390D02*
X109263904Y-141511009D01*
X109263904Y-141511009D02*
X109168666Y-141558628D01*
X109168666Y-141558628D02*
X108787714Y-141558628D01*
X109740095Y-141130057D02*
X109787714Y-141082438D01*
X109787714Y-141082438D02*
X109882952Y-141034819D01*
X109882952Y-141034819D02*
X110121047Y-141034819D01*
X110121047Y-141034819D02*
X110216285Y-141082438D01*
X110216285Y-141082438D02*
X110263904Y-141130057D01*
X110263904Y-141130057D02*
X110311523Y-141225295D01*
X110311523Y-141225295D02*
X110311523Y-141320533D01*
X110311523Y-141320533D02*
X110263904Y-141463390D01*
X110263904Y-141463390D02*
X109692476Y-142034819D01*
X109692476Y-142034819D02*
X110311523Y-142034819D01*
X111263904Y-142034819D02*
X110692476Y-142034819D01*
X110978190Y-142034819D02*
X110978190Y-141034819D01*
X110978190Y-141034819D02*
X110882952Y-141177676D01*
X110882952Y-141177676D02*
X110787714Y-141272914D01*
X110787714Y-141272914D02*
X110692476Y-141320533D01*
X136401666Y-97447819D02*
X136401666Y-98162104D01*
X136401666Y-98162104D02*
X136354047Y-98304961D01*
X136354047Y-98304961D02*
X136258809Y-98400200D01*
X136258809Y-98400200D02*
X136115952Y-98447819D01*
X136115952Y-98447819D02*
X136020714Y-98447819D01*
X136877857Y-98447819D02*
X136877857Y-97447819D01*
X136877857Y-97447819D02*
X137258809Y-97447819D01*
X137258809Y-97447819D02*
X137354047Y-97495438D01*
X137354047Y-97495438D02*
X137401666Y-97543057D01*
X137401666Y-97543057D02*
X137449285Y-97638295D01*
X137449285Y-97638295D02*
X137449285Y-97781152D01*
X137449285Y-97781152D02*
X137401666Y-97876390D01*
X137401666Y-97876390D02*
X137354047Y-97924009D01*
X137354047Y-97924009D02*
X137258809Y-97971628D01*
X137258809Y-97971628D02*
X136877857Y-97971628D01*
X137830238Y-97543057D02*
X137877857Y-97495438D01*
X137877857Y-97495438D02*
X137973095Y-97447819D01*
X137973095Y-97447819D02*
X138211190Y-97447819D01*
X138211190Y-97447819D02*
X138306428Y-97495438D01*
X138306428Y-97495438D02*
X138354047Y-97543057D01*
X138354047Y-97543057D02*
X138401666Y-97638295D01*
X138401666Y-97638295D02*
X138401666Y-97733533D01*
X138401666Y-97733533D02*
X138354047Y-97876390D01*
X138354047Y-97876390D02*
X137782619Y-98447819D01*
X137782619Y-98447819D02*
X138401666Y-98447819D01*
X99725142Y-79419819D02*
X99391809Y-78943628D01*
X99153714Y-79419819D02*
X99153714Y-78419819D01*
X99153714Y-78419819D02*
X99534666Y-78419819D01*
X99534666Y-78419819D02*
X99629904Y-78467438D01*
X99629904Y-78467438D02*
X99677523Y-78515057D01*
X99677523Y-78515057D02*
X99725142Y-78610295D01*
X99725142Y-78610295D02*
X99725142Y-78753152D01*
X99725142Y-78753152D02*
X99677523Y-78848390D01*
X99677523Y-78848390D02*
X99629904Y-78896009D01*
X99629904Y-78896009D02*
X99534666Y-78943628D01*
X99534666Y-78943628D02*
X99153714Y-78943628D01*
X100106095Y-78515057D02*
X100153714Y-78467438D01*
X100153714Y-78467438D02*
X100248952Y-78419819D01*
X100248952Y-78419819D02*
X100487047Y-78419819D01*
X100487047Y-78419819D02*
X100582285Y-78467438D01*
X100582285Y-78467438D02*
X100629904Y-78515057D01*
X100629904Y-78515057D02*
X100677523Y-78610295D01*
X100677523Y-78610295D02*
X100677523Y-78705533D01*
X100677523Y-78705533D02*
X100629904Y-78848390D01*
X100629904Y-78848390D02*
X100058476Y-79419819D01*
X100058476Y-79419819D02*
X100677523Y-79419819D01*
X101058476Y-78515057D02*
X101106095Y-78467438D01*
X101106095Y-78467438D02*
X101201333Y-78419819D01*
X101201333Y-78419819D02*
X101439428Y-78419819D01*
X101439428Y-78419819D02*
X101534666Y-78467438D01*
X101534666Y-78467438D02*
X101582285Y-78515057D01*
X101582285Y-78515057D02*
X101629904Y-78610295D01*
X101629904Y-78610295D02*
X101629904Y-78705533D01*
X101629904Y-78705533D02*
X101582285Y-78848390D01*
X101582285Y-78848390D02*
X101010857Y-79419819D01*
X101010857Y-79419819D02*
X101629904Y-79419819D01*
X106805333Y-84245819D02*
X106472000Y-83769628D01*
X106233905Y-84245819D02*
X106233905Y-83245819D01*
X106233905Y-83245819D02*
X106614857Y-83245819D01*
X106614857Y-83245819D02*
X106710095Y-83293438D01*
X106710095Y-83293438D02*
X106757714Y-83341057D01*
X106757714Y-83341057D02*
X106805333Y-83436295D01*
X106805333Y-83436295D02*
X106805333Y-83579152D01*
X106805333Y-83579152D02*
X106757714Y-83674390D01*
X106757714Y-83674390D02*
X106710095Y-83722009D01*
X106710095Y-83722009D02*
X106614857Y-83769628D01*
X106614857Y-83769628D02*
X106233905Y-83769628D01*
X107662476Y-83579152D02*
X107662476Y-84245819D01*
X107424381Y-83198200D02*
X107186286Y-83912485D01*
X107186286Y-83912485D02*
X107805333Y-83912485D01*
X106075142Y-137839819D02*
X105741809Y-137363628D01*
X105503714Y-137839819D02*
X105503714Y-136839819D01*
X105503714Y-136839819D02*
X105884666Y-136839819D01*
X105884666Y-136839819D02*
X105979904Y-136887438D01*
X105979904Y-136887438D02*
X106027523Y-136935057D01*
X106027523Y-136935057D02*
X106075142Y-137030295D01*
X106075142Y-137030295D02*
X106075142Y-137173152D01*
X106075142Y-137173152D02*
X106027523Y-137268390D01*
X106027523Y-137268390D02*
X105979904Y-137316009D01*
X105979904Y-137316009D02*
X105884666Y-137363628D01*
X105884666Y-137363628D02*
X105503714Y-137363628D01*
X106456095Y-136935057D02*
X106503714Y-136887438D01*
X106503714Y-136887438D02*
X106598952Y-136839819D01*
X106598952Y-136839819D02*
X106837047Y-136839819D01*
X106837047Y-136839819D02*
X106932285Y-136887438D01*
X106932285Y-136887438D02*
X106979904Y-136935057D01*
X106979904Y-136935057D02*
X107027523Y-137030295D01*
X107027523Y-137030295D02*
X107027523Y-137125533D01*
X107027523Y-137125533D02*
X106979904Y-137268390D01*
X106979904Y-137268390D02*
X106408476Y-137839819D01*
X106408476Y-137839819D02*
X107027523Y-137839819D01*
X107360857Y-136839819D02*
X107979904Y-136839819D01*
X107979904Y-136839819D02*
X107646571Y-137220771D01*
X107646571Y-137220771D02*
X107789428Y-137220771D01*
X107789428Y-137220771D02*
X107884666Y-137268390D01*
X107884666Y-137268390D02*
X107932285Y-137316009D01*
X107932285Y-137316009D02*
X107979904Y-137411247D01*
X107979904Y-137411247D02*
X107979904Y-137649342D01*
X107979904Y-137649342D02*
X107932285Y-137744580D01*
X107932285Y-137744580D02*
X107884666Y-137792200D01*
X107884666Y-137792200D02*
X107789428Y-137839819D01*
X107789428Y-137839819D02*
X107503714Y-137839819D01*
X107503714Y-137839819D02*
X107408476Y-137792200D01*
X107408476Y-137792200D02*
X107360857Y-137744580D01*
X106805333Y-81959819D02*
X106472000Y-81483628D01*
X106233905Y-81959819D02*
X106233905Y-80959819D01*
X106233905Y-80959819D02*
X106614857Y-80959819D01*
X106614857Y-80959819D02*
X106710095Y-81007438D01*
X106710095Y-81007438D02*
X106757714Y-81055057D01*
X106757714Y-81055057D02*
X106805333Y-81150295D01*
X106805333Y-81150295D02*
X106805333Y-81293152D01*
X106805333Y-81293152D02*
X106757714Y-81388390D01*
X106757714Y-81388390D02*
X106710095Y-81436009D01*
X106710095Y-81436009D02*
X106614857Y-81483628D01*
X106614857Y-81483628D02*
X106233905Y-81483628D01*
X107138667Y-80959819D02*
X107757714Y-80959819D01*
X107757714Y-80959819D02*
X107424381Y-81340771D01*
X107424381Y-81340771D02*
X107567238Y-81340771D01*
X107567238Y-81340771D02*
X107662476Y-81388390D01*
X107662476Y-81388390D02*
X107710095Y-81436009D01*
X107710095Y-81436009D02*
X107757714Y-81531247D01*
X107757714Y-81531247D02*
X107757714Y-81769342D01*
X107757714Y-81769342D02*
X107710095Y-81864580D01*
X107710095Y-81864580D02*
X107662476Y-81912200D01*
X107662476Y-81912200D02*
X107567238Y-81959819D01*
X107567238Y-81959819D02*
X107281524Y-81959819D01*
X107281524Y-81959819D02*
X107186286Y-81912200D01*
X107186286Y-81912200D02*
X107138667Y-81864580D01*
X106837142Y-104819819D02*
X106503809Y-104343628D01*
X106265714Y-104819819D02*
X106265714Y-103819819D01*
X106265714Y-103819819D02*
X106646666Y-103819819D01*
X106646666Y-103819819D02*
X106741904Y-103867438D01*
X106741904Y-103867438D02*
X106789523Y-103915057D01*
X106789523Y-103915057D02*
X106837142Y-104010295D01*
X106837142Y-104010295D02*
X106837142Y-104153152D01*
X106837142Y-104153152D02*
X106789523Y-104248390D01*
X106789523Y-104248390D02*
X106741904Y-104296009D01*
X106741904Y-104296009D02*
X106646666Y-104343628D01*
X106646666Y-104343628D02*
X106265714Y-104343628D01*
X107789523Y-104819819D02*
X107218095Y-104819819D01*
X107503809Y-104819819D02*
X107503809Y-103819819D01*
X107503809Y-103819819D02*
X107408571Y-103962676D01*
X107408571Y-103962676D02*
X107313333Y-104057914D01*
X107313333Y-104057914D02*
X107218095Y-104105533D01*
X108170476Y-103915057D02*
X108218095Y-103867438D01*
X108218095Y-103867438D02*
X108313333Y-103819819D01*
X108313333Y-103819819D02*
X108551428Y-103819819D01*
X108551428Y-103819819D02*
X108646666Y-103867438D01*
X108646666Y-103867438D02*
X108694285Y-103915057D01*
X108694285Y-103915057D02*
X108741904Y-104010295D01*
X108741904Y-104010295D02*
X108741904Y-104105533D01*
X108741904Y-104105533D02*
X108694285Y-104248390D01*
X108694285Y-104248390D02*
X108122857Y-104819819D01*
X108122857Y-104819819D02*
X108741904Y-104819819D01*
X136986667Y-141462200D02*
X137129524Y-141509819D01*
X137129524Y-141509819D02*
X137367619Y-141509819D01*
X137367619Y-141509819D02*
X137462857Y-141462200D01*
X137462857Y-141462200D02*
X137510476Y-141414580D01*
X137510476Y-141414580D02*
X137558095Y-141319342D01*
X137558095Y-141319342D02*
X137558095Y-141224104D01*
X137558095Y-141224104D02*
X137510476Y-141128866D01*
X137510476Y-141128866D02*
X137462857Y-141081247D01*
X137462857Y-141081247D02*
X137367619Y-141033628D01*
X137367619Y-141033628D02*
X137177143Y-140986009D01*
X137177143Y-140986009D02*
X137081905Y-140938390D01*
X137081905Y-140938390D02*
X137034286Y-140890771D01*
X137034286Y-140890771D02*
X136986667Y-140795533D01*
X136986667Y-140795533D02*
X136986667Y-140700295D01*
X136986667Y-140700295D02*
X137034286Y-140605057D01*
X137034286Y-140605057D02*
X137081905Y-140557438D01*
X137081905Y-140557438D02*
X137177143Y-140509819D01*
X137177143Y-140509819D02*
X137415238Y-140509819D01*
X137415238Y-140509819D02*
X137558095Y-140557438D01*
X137891429Y-140509819D02*
X138129524Y-141509819D01*
X138129524Y-141509819D02*
X138320000Y-140795533D01*
X138320000Y-140795533D02*
X138510476Y-141509819D01*
X138510476Y-141509819D02*
X138748572Y-140509819D01*
X139653333Y-141509819D02*
X139081905Y-141509819D01*
X139367619Y-141509819D02*
X139367619Y-140509819D01*
X139367619Y-140509819D02*
X139272381Y-140652676D01*
X139272381Y-140652676D02*
X139177143Y-140747914D01*
X139177143Y-140747914D02*
X139081905Y-140795533D01*
X99725142Y-140125819D02*
X99391809Y-139649628D01*
X99153714Y-140125819D02*
X99153714Y-139125819D01*
X99153714Y-139125819D02*
X99534666Y-139125819D01*
X99534666Y-139125819D02*
X99629904Y-139173438D01*
X99629904Y-139173438D02*
X99677523Y-139221057D01*
X99677523Y-139221057D02*
X99725142Y-139316295D01*
X99725142Y-139316295D02*
X99725142Y-139459152D01*
X99725142Y-139459152D02*
X99677523Y-139554390D01*
X99677523Y-139554390D02*
X99629904Y-139602009D01*
X99629904Y-139602009D02*
X99534666Y-139649628D01*
X99534666Y-139649628D02*
X99153714Y-139649628D01*
X100058476Y-139125819D02*
X100677523Y-139125819D01*
X100677523Y-139125819D02*
X100344190Y-139506771D01*
X100344190Y-139506771D02*
X100487047Y-139506771D01*
X100487047Y-139506771D02*
X100582285Y-139554390D01*
X100582285Y-139554390D02*
X100629904Y-139602009D01*
X100629904Y-139602009D02*
X100677523Y-139697247D01*
X100677523Y-139697247D02*
X100677523Y-139935342D01*
X100677523Y-139935342D02*
X100629904Y-140030580D01*
X100629904Y-140030580D02*
X100582285Y-140078200D01*
X100582285Y-140078200D02*
X100487047Y-140125819D01*
X100487047Y-140125819D02*
X100201333Y-140125819D01*
X100201333Y-140125819D02*
X100106095Y-140078200D01*
X100106095Y-140078200D02*
X100058476Y-140030580D01*
X101582285Y-139125819D02*
X101106095Y-139125819D01*
X101106095Y-139125819D02*
X101058476Y-139602009D01*
X101058476Y-139602009D02*
X101106095Y-139554390D01*
X101106095Y-139554390D02*
X101201333Y-139506771D01*
X101201333Y-139506771D02*
X101439428Y-139506771D01*
X101439428Y-139506771D02*
X101534666Y-139554390D01*
X101534666Y-139554390D02*
X101582285Y-139602009D01*
X101582285Y-139602009D02*
X101629904Y-139697247D01*
X101629904Y-139697247D02*
X101629904Y-139935342D01*
X101629904Y-139935342D02*
X101582285Y-140030580D01*
X101582285Y-140030580D02*
X101534666Y-140078200D01*
X101534666Y-140078200D02*
X101439428Y-140125819D01*
X101439428Y-140125819D02*
X101201333Y-140125819D01*
X101201333Y-140125819D02*
X101106095Y-140078200D01*
X101106095Y-140078200D02*
X101058476Y-140030580D01*
X106805333Y-87039819D02*
X106472000Y-86563628D01*
X106233905Y-87039819D02*
X106233905Y-86039819D01*
X106233905Y-86039819D02*
X106614857Y-86039819D01*
X106614857Y-86039819D02*
X106710095Y-86087438D01*
X106710095Y-86087438D02*
X106757714Y-86135057D01*
X106757714Y-86135057D02*
X106805333Y-86230295D01*
X106805333Y-86230295D02*
X106805333Y-86373152D01*
X106805333Y-86373152D02*
X106757714Y-86468390D01*
X106757714Y-86468390D02*
X106710095Y-86516009D01*
X106710095Y-86516009D02*
X106614857Y-86563628D01*
X106614857Y-86563628D02*
X106233905Y-86563628D01*
X107710095Y-86039819D02*
X107233905Y-86039819D01*
X107233905Y-86039819D02*
X107186286Y-86516009D01*
X107186286Y-86516009D02*
X107233905Y-86468390D01*
X107233905Y-86468390D02*
X107329143Y-86420771D01*
X107329143Y-86420771D02*
X107567238Y-86420771D01*
X107567238Y-86420771D02*
X107662476Y-86468390D01*
X107662476Y-86468390D02*
X107710095Y-86516009D01*
X107710095Y-86516009D02*
X107757714Y-86611247D01*
X107757714Y-86611247D02*
X107757714Y-86849342D01*
X107757714Y-86849342D02*
X107710095Y-86944580D01*
X107710095Y-86944580D02*
X107662476Y-86992200D01*
X107662476Y-86992200D02*
X107567238Y-87039819D01*
X107567238Y-87039819D02*
X107329143Y-87039819D01*
X107329143Y-87039819D02*
X107233905Y-86992200D01*
X107233905Y-86992200D02*
X107186286Y-86944580D01*
X106837142Y-99739819D02*
X106503809Y-99263628D01*
X106265714Y-99739819D02*
X106265714Y-98739819D01*
X106265714Y-98739819D02*
X106646666Y-98739819D01*
X106646666Y-98739819D02*
X106741904Y-98787438D01*
X106741904Y-98787438D02*
X106789523Y-98835057D01*
X106789523Y-98835057D02*
X106837142Y-98930295D01*
X106837142Y-98930295D02*
X106837142Y-99073152D01*
X106837142Y-99073152D02*
X106789523Y-99168390D01*
X106789523Y-99168390D02*
X106741904Y-99216009D01*
X106741904Y-99216009D02*
X106646666Y-99263628D01*
X106646666Y-99263628D02*
X106265714Y-99263628D01*
X107789523Y-99739819D02*
X107218095Y-99739819D01*
X107503809Y-99739819D02*
X107503809Y-98739819D01*
X107503809Y-98739819D02*
X107408571Y-98882676D01*
X107408571Y-98882676D02*
X107313333Y-98977914D01*
X107313333Y-98977914D02*
X107218095Y-99025533D01*
X108408571Y-98739819D02*
X108503809Y-98739819D01*
X108503809Y-98739819D02*
X108599047Y-98787438D01*
X108599047Y-98787438D02*
X108646666Y-98835057D01*
X108646666Y-98835057D02*
X108694285Y-98930295D01*
X108694285Y-98930295D02*
X108741904Y-99120771D01*
X108741904Y-99120771D02*
X108741904Y-99358866D01*
X108741904Y-99358866D02*
X108694285Y-99549342D01*
X108694285Y-99549342D02*
X108646666Y-99644580D01*
X108646666Y-99644580D02*
X108599047Y-99692200D01*
X108599047Y-99692200D02*
X108503809Y-99739819D01*
X108503809Y-99739819D02*
X108408571Y-99739819D01*
X108408571Y-99739819D02*
X108313333Y-99692200D01*
X108313333Y-99692200D02*
X108265714Y-99644580D01*
X108265714Y-99644580D02*
X108218095Y-99549342D01*
X108218095Y-99549342D02*
X108170476Y-99358866D01*
X108170476Y-99358866D02*
X108170476Y-99120771D01*
X108170476Y-99120771D02*
X108218095Y-98930295D01*
X108218095Y-98930295D02*
X108265714Y-98835057D01*
X108265714Y-98835057D02*
X108313333Y-98787438D01*
X108313333Y-98787438D02*
X108408571Y-98739819D01*
X160406666Y-106867819D02*
X160406666Y-107582104D01*
X160406666Y-107582104D02*
X160359047Y-107724961D01*
X160359047Y-107724961D02*
X160263809Y-107820200D01*
X160263809Y-107820200D02*
X160120952Y-107867819D01*
X160120952Y-107867819D02*
X160025714Y-107867819D01*
X161359047Y-106867819D02*
X160882857Y-106867819D01*
X160882857Y-106867819D02*
X160835238Y-107344009D01*
X160835238Y-107344009D02*
X160882857Y-107296390D01*
X160882857Y-107296390D02*
X160978095Y-107248771D01*
X160978095Y-107248771D02*
X161216190Y-107248771D01*
X161216190Y-107248771D02*
X161311428Y-107296390D01*
X161311428Y-107296390D02*
X161359047Y-107344009D01*
X161359047Y-107344009D02*
X161406666Y-107439247D01*
X161406666Y-107439247D02*
X161406666Y-107677342D01*
X161406666Y-107677342D02*
X161359047Y-107772580D01*
X161359047Y-107772580D02*
X161311428Y-107820200D01*
X161311428Y-107820200D02*
X161216190Y-107867819D01*
X161216190Y-107867819D02*
X160978095Y-107867819D01*
X160978095Y-107867819D02*
X160882857Y-107820200D01*
X160882857Y-107820200D02*
X160835238Y-107772580D01*
X159750819Y-95101857D02*
X159274628Y-95435190D01*
X159750819Y-95673285D02*
X158750819Y-95673285D01*
X158750819Y-95673285D02*
X158750819Y-95292333D01*
X158750819Y-95292333D02*
X158798438Y-95197095D01*
X158798438Y-95197095D02*
X158846057Y-95149476D01*
X158846057Y-95149476D02*
X158941295Y-95101857D01*
X158941295Y-95101857D02*
X159084152Y-95101857D01*
X159084152Y-95101857D02*
X159179390Y-95149476D01*
X159179390Y-95149476D02*
X159227009Y-95197095D01*
X159227009Y-95197095D02*
X159274628Y-95292333D01*
X159274628Y-95292333D02*
X159274628Y-95673285D01*
X158750819Y-94768523D02*
X158750819Y-94149476D01*
X158750819Y-94149476D02*
X159131771Y-94482809D01*
X159131771Y-94482809D02*
X159131771Y-94339952D01*
X159131771Y-94339952D02*
X159179390Y-94244714D01*
X159179390Y-94244714D02*
X159227009Y-94197095D01*
X159227009Y-94197095D02*
X159322247Y-94149476D01*
X159322247Y-94149476D02*
X159560342Y-94149476D01*
X159560342Y-94149476D02*
X159655580Y-94197095D01*
X159655580Y-94197095D02*
X159703200Y-94244714D01*
X159703200Y-94244714D02*
X159750819Y-94339952D01*
X159750819Y-94339952D02*
X159750819Y-94625666D01*
X159750819Y-94625666D02*
X159703200Y-94720904D01*
X159703200Y-94720904D02*
X159655580Y-94768523D01*
X158750819Y-93292333D02*
X158750819Y-93482809D01*
X158750819Y-93482809D02*
X158798438Y-93578047D01*
X158798438Y-93578047D02*
X158846057Y-93625666D01*
X158846057Y-93625666D02*
X158988914Y-93720904D01*
X158988914Y-93720904D02*
X159179390Y-93768523D01*
X159179390Y-93768523D02*
X159560342Y-93768523D01*
X159560342Y-93768523D02*
X159655580Y-93720904D01*
X159655580Y-93720904D02*
X159703200Y-93673285D01*
X159703200Y-93673285D02*
X159750819Y-93578047D01*
X159750819Y-93578047D02*
X159750819Y-93387571D01*
X159750819Y-93387571D02*
X159703200Y-93292333D01*
X159703200Y-93292333D02*
X159655580Y-93244714D01*
X159655580Y-93244714D02*
X159560342Y-93197095D01*
X159560342Y-93197095D02*
X159322247Y-93197095D01*
X159322247Y-93197095D02*
X159227009Y-93244714D01*
X159227009Y-93244714D02*
X159179390Y-93292333D01*
X159179390Y-93292333D02*
X159131771Y-93387571D01*
X159131771Y-93387571D02*
X159131771Y-93578047D01*
X159131771Y-93578047D02*
X159179390Y-93673285D01*
X159179390Y-93673285D02*
X159227009Y-93720904D01*
X159227009Y-93720904D02*
X159322247Y-93768523D01*
X166906667Y-141652200D02*
X167049524Y-141699819D01*
X167049524Y-141699819D02*
X167287619Y-141699819D01*
X167287619Y-141699819D02*
X167382857Y-141652200D01*
X167382857Y-141652200D02*
X167430476Y-141604580D01*
X167430476Y-141604580D02*
X167478095Y-141509342D01*
X167478095Y-141509342D02*
X167478095Y-141414104D01*
X167478095Y-141414104D02*
X167430476Y-141318866D01*
X167430476Y-141318866D02*
X167382857Y-141271247D01*
X167382857Y-141271247D02*
X167287619Y-141223628D01*
X167287619Y-141223628D02*
X167097143Y-141176009D01*
X167097143Y-141176009D02*
X167001905Y-141128390D01*
X167001905Y-141128390D02*
X166954286Y-141080771D01*
X166954286Y-141080771D02*
X166906667Y-140985533D01*
X166906667Y-140985533D02*
X166906667Y-140890295D01*
X166906667Y-140890295D02*
X166954286Y-140795057D01*
X166954286Y-140795057D02*
X167001905Y-140747438D01*
X167001905Y-140747438D02*
X167097143Y-140699819D01*
X167097143Y-140699819D02*
X167335238Y-140699819D01*
X167335238Y-140699819D02*
X167478095Y-140747438D01*
X167811429Y-140699819D02*
X168049524Y-141699819D01*
X168049524Y-141699819D02*
X168240000Y-140985533D01*
X168240000Y-140985533D02*
X168430476Y-141699819D01*
X168430476Y-141699819D02*
X168668572Y-140699819D01*
X168954286Y-140699819D02*
X169620952Y-140699819D01*
X169620952Y-140699819D02*
X169192381Y-141699819D01*
X120232595Y-136384819D02*
X120804023Y-136384819D01*
X120518309Y-137384819D02*
X120518309Y-136384819D01*
X121708785Y-137384819D02*
X121375452Y-136908628D01*
X121137357Y-137384819D02*
X121137357Y-136384819D01*
X121137357Y-136384819D02*
X121518309Y-136384819D01*
X121518309Y-136384819D02*
X121613547Y-136432438D01*
X121613547Y-136432438D02*
X121661166Y-136480057D01*
X121661166Y-136480057D02*
X121708785Y-136575295D01*
X121708785Y-136575295D02*
X121708785Y-136718152D01*
X121708785Y-136718152D02*
X121661166Y-136813390D01*
X121661166Y-136813390D02*
X121613547Y-136861009D01*
X121613547Y-136861009D02*
X121518309Y-136908628D01*
X121518309Y-136908628D02*
X121137357Y-136908628D01*
X122042119Y-136384819D02*
X122661166Y-136384819D01*
X122661166Y-136384819D02*
X122327833Y-136765771D01*
X122327833Y-136765771D02*
X122470690Y-136765771D01*
X122470690Y-136765771D02*
X122565928Y-136813390D01*
X122565928Y-136813390D02*
X122613547Y-136861009D01*
X122613547Y-136861009D02*
X122661166Y-136956247D01*
X122661166Y-136956247D02*
X122661166Y-137194342D01*
X122661166Y-137194342D02*
X122613547Y-137289580D01*
X122613547Y-137289580D02*
X122565928Y-137337200D01*
X122565928Y-137337200D02*
X122470690Y-137384819D01*
X122470690Y-137384819D02*
X122184976Y-137384819D01*
X122184976Y-137384819D02*
X122089738Y-137337200D01*
X122089738Y-137337200D02*
X122042119Y-137289580D01*
X106805333Y-89579819D02*
X106472000Y-89103628D01*
X106233905Y-89579819D02*
X106233905Y-88579819D01*
X106233905Y-88579819D02*
X106614857Y-88579819D01*
X106614857Y-88579819D02*
X106710095Y-88627438D01*
X106710095Y-88627438D02*
X106757714Y-88675057D01*
X106757714Y-88675057D02*
X106805333Y-88770295D01*
X106805333Y-88770295D02*
X106805333Y-88913152D01*
X106805333Y-88913152D02*
X106757714Y-89008390D01*
X106757714Y-89008390D02*
X106710095Y-89056009D01*
X106710095Y-89056009D02*
X106614857Y-89103628D01*
X106614857Y-89103628D02*
X106233905Y-89103628D01*
X107662476Y-88579819D02*
X107472000Y-88579819D01*
X107472000Y-88579819D02*
X107376762Y-88627438D01*
X107376762Y-88627438D02*
X107329143Y-88675057D01*
X107329143Y-88675057D02*
X107233905Y-88817914D01*
X107233905Y-88817914D02*
X107186286Y-89008390D01*
X107186286Y-89008390D02*
X107186286Y-89389342D01*
X107186286Y-89389342D02*
X107233905Y-89484580D01*
X107233905Y-89484580D02*
X107281524Y-89532200D01*
X107281524Y-89532200D02*
X107376762Y-89579819D01*
X107376762Y-89579819D02*
X107567238Y-89579819D01*
X107567238Y-89579819D02*
X107662476Y-89532200D01*
X107662476Y-89532200D02*
X107710095Y-89484580D01*
X107710095Y-89484580D02*
X107757714Y-89389342D01*
X107757714Y-89389342D02*
X107757714Y-89151247D01*
X107757714Y-89151247D02*
X107710095Y-89056009D01*
X107710095Y-89056009D02*
X107662476Y-89008390D01*
X107662476Y-89008390D02*
X107567238Y-88960771D01*
X107567238Y-88960771D02*
X107376762Y-88960771D01*
X107376762Y-88960771D02*
X107281524Y-89008390D01*
X107281524Y-89008390D02*
X107233905Y-89056009D01*
X107233905Y-89056009D02*
X107186286Y-89151247D01*
X106837142Y-127679819D02*
X106503809Y-127203628D01*
X106265714Y-127679819D02*
X106265714Y-126679819D01*
X106265714Y-126679819D02*
X106646666Y-126679819D01*
X106646666Y-126679819D02*
X106741904Y-126727438D01*
X106741904Y-126727438D02*
X106789523Y-126775057D01*
X106789523Y-126775057D02*
X106837142Y-126870295D01*
X106837142Y-126870295D02*
X106837142Y-127013152D01*
X106837142Y-127013152D02*
X106789523Y-127108390D01*
X106789523Y-127108390D02*
X106741904Y-127156009D01*
X106741904Y-127156009D02*
X106646666Y-127203628D01*
X106646666Y-127203628D02*
X106265714Y-127203628D01*
X107170476Y-126679819D02*
X107789523Y-126679819D01*
X107789523Y-126679819D02*
X107456190Y-127060771D01*
X107456190Y-127060771D02*
X107599047Y-127060771D01*
X107599047Y-127060771D02*
X107694285Y-127108390D01*
X107694285Y-127108390D02*
X107741904Y-127156009D01*
X107741904Y-127156009D02*
X107789523Y-127251247D01*
X107789523Y-127251247D02*
X107789523Y-127489342D01*
X107789523Y-127489342D02*
X107741904Y-127584580D01*
X107741904Y-127584580D02*
X107694285Y-127632200D01*
X107694285Y-127632200D02*
X107599047Y-127679819D01*
X107599047Y-127679819D02*
X107313333Y-127679819D01*
X107313333Y-127679819D02*
X107218095Y-127632200D01*
X107218095Y-127632200D02*
X107170476Y-127584580D01*
X108408571Y-126679819D02*
X108503809Y-126679819D01*
X108503809Y-126679819D02*
X108599047Y-126727438D01*
X108599047Y-126727438D02*
X108646666Y-126775057D01*
X108646666Y-126775057D02*
X108694285Y-126870295D01*
X108694285Y-126870295D02*
X108741904Y-127060771D01*
X108741904Y-127060771D02*
X108741904Y-127298866D01*
X108741904Y-127298866D02*
X108694285Y-127489342D01*
X108694285Y-127489342D02*
X108646666Y-127584580D01*
X108646666Y-127584580D02*
X108599047Y-127632200D01*
X108599047Y-127632200D02*
X108503809Y-127679819D01*
X108503809Y-127679819D02*
X108408571Y-127679819D01*
X108408571Y-127679819D02*
X108313333Y-127632200D01*
X108313333Y-127632200D02*
X108265714Y-127584580D01*
X108265714Y-127584580D02*
X108218095Y-127489342D01*
X108218095Y-127489342D02*
X108170476Y-127298866D01*
X108170476Y-127298866D02*
X108170476Y-127060771D01*
X108170476Y-127060771D02*
X108218095Y-126870295D01*
X108218095Y-126870295D02*
X108265714Y-126775057D01*
X108265714Y-126775057D02*
X108313333Y-126727438D01*
X108313333Y-126727438D02*
X108408571Y-126679819D01*
X106805333Y-97199819D02*
X106472000Y-96723628D01*
X106233905Y-97199819D02*
X106233905Y-96199819D01*
X106233905Y-96199819D02*
X106614857Y-96199819D01*
X106614857Y-96199819D02*
X106710095Y-96247438D01*
X106710095Y-96247438D02*
X106757714Y-96295057D01*
X106757714Y-96295057D02*
X106805333Y-96390295D01*
X106805333Y-96390295D02*
X106805333Y-96533152D01*
X106805333Y-96533152D02*
X106757714Y-96628390D01*
X106757714Y-96628390D02*
X106710095Y-96676009D01*
X106710095Y-96676009D02*
X106614857Y-96723628D01*
X106614857Y-96723628D02*
X106233905Y-96723628D01*
X107281524Y-97199819D02*
X107472000Y-97199819D01*
X107472000Y-97199819D02*
X107567238Y-97152200D01*
X107567238Y-97152200D02*
X107614857Y-97104580D01*
X107614857Y-97104580D02*
X107710095Y-96961723D01*
X107710095Y-96961723D02*
X107757714Y-96771247D01*
X107757714Y-96771247D02*
X107757714Y-96390295D01*
X107757714Y-96390295D02*
X107710095Y-96295057D01*
X107710095Y-96295057D02*
X107662476Y-96247438D01*
X107662476Y-96247438D02*
X107567238Y-96199819D01*
X107567238Y-96199819D02*
X107376762Y-96199819D01*
X107376762Y-96199819D02*
X107281524Y-96247438D01*
X107281524Y-96247438D02*
X107233905Y-96295057D01*
X107233905Y-96295057D02*
X107186286Y-96390295D01*
X107186286Y-96390295D02*
X107186286Y-96628390D01*
X107186286Y-96628390D02*
X107233905Y-96723628D01*
X107233905Y-96723628D02*
X107281524Y-96771247D01*
X107281524Y-96771247D02*
X107376762Y-96818866D01*
X107376762Y-96818866D02*
X107567238Y-96818866D01*
X107567238Y-96818866D02*
X107662476Y-96771247D01*
X107662476Y-96771247D02*
X107710095Y-96723628D01*
X107710095Y-96723628D02*
X107757714Y-96628390D01*
X111044095Y-75879819D02*
X111615523Y-75879819D01*
X111329809Y-76879819D02*
X111329809Y-75879819D01*
X112520285Y-76879819D02*
X112186952Y-76403628D01*
X111948857Y-76879819D02*
X111948857Y-75879819D01*
X111948857Y-75879819D02*
X112329809Y-75879819D01*
X112329809Y-75879819D02*
X112425047Y-75927438D01*
X112425047Y-75927438D02*
X112472666Y-75975057D01*
X112472666Y-75975057D02*
X112520285Y-76070295D01*
X112520285Y-76070295D02*
X112520285Y-76213152D01*
X112520285Y-76213152D02*
X112472666Y-76308390D01*
X112472666Y-76308390D02*
X112425047Y-76356009D01*
X112425047Y-76356009D02*
X112329809Y-76403628D01*
X112329809Y-76403628D02*
X111948857Y-76403628D01*
X113472666Y-76879819D02*
X112901238Y-76879819D01*
X113186952Y-76879819D02*
X113186952Y-75879819D01*
X113186952Y-75879819D02*
X113091714Y-76022676D01*
X113091714Y-76022676D02*
X112996476Y-76117914D01*
X112996476Y-76117914D02*
X112901238Y-76165533D01*
X95314819Y-149153333D02*
X96029104Y-149153333D01*
X96029104Y-149153333D02*
X96171961Y-149200952D01*
X96171961Y-149200952D02*
X96267200Y-149296190D01*
X96267200Y-149296190D02*
X96314819Y-149439047D01*
X96314819Y-149439047D02*
X96314819Y-149534285D01*
X95410057Y-148724761D02*
X95362438Y-148677142D01*
X95362438Y-148677142D02*
X95314819Y-148581904D01*
X95314819Y-148581904D02*
X95314819Y-148343809D01*
X95314819Y-148343809D02*
X95362438Y-148248571D01*
X95362438Y-148248571D02*
X95410057Y-148200952D01*
X95410057Y-148200952D02*
X95505295Y-148153333D01*
X95505295Y-148153333D02*
X95600533Y-148153333D01*
X95600533Y-148153333D02*
X95743390Y-148200952D01*
X95743390Y-148200952D02*
X96314819Y-148772380D01*
X96314819Y-148772380D02*
X96314819Y-148153333D01*
X106837142Y-102279819D02*
X106503809Y-101803628D01*
X106265714Y-102279819D02*
X106265714Y-101279819D01*
X106265714Y-101279819D02*
X106646666Y-101279819D01*
X106646666Y-101279819D02*
X106741904Y-101327438D01*
X106741904Y-101327438D02*
X106789523Y-101375057D01*
X106789523Y-101375057D02*
X106837142Y-101470295D01*
X106837142Y-101470295D02*
X106837142Y-101613152D01*
X106837142Y-101613152D02*
X106789523Y-101708390D01*
X106789523Y-101708390D02*
X106741904Y-101756009D01*
X106741904Y-101756009D02*
X106646666Y-101803628D01*
X106646666Y-101803628D02*
X106265714Y-101803628D01*
X107789523Y-102279819D02*
X107218095Y-102279819D01*
X107503809Y-102279819D02*
X107503809Y-101279819D01*
X107503809Y-101279819D02*
X107408571Y-101422676D01*
X107408571Y-101422676D02*
X107313333Y-101517914D01*
X107313333Y-101517914D02*
X107218095Y-101565533D01*
X108741904Y-102279819D02*
X108170476Y-102279819D01*
X108456190Y-102279819D02*
X108456190Y-101279819D01*
X108456190Y-101279819D02*
X108360952Y-101422676D01*
X108360952Y-101422676D02*
X108265714Y-101517914D01*
X108265714Y-101517914D02*
X108170476Y-101565533D01*
X164830819Y-98657857D02*
X164354628Y-98991190D01*
X164830819Y-99229285D02*
X163830819Y-99229285D01*
X163830819Y-99229285D02*
X163830819Y-98848333D01*
X163830819Y-98848333D02*
X163878438Y-98753095D01*
X163878438Y-98753095D02*
X163926057Y-98705476D01*
X163926057Y-98705476D02*
X164021295Y-98657857D01*
X164021295Y-98657857D02*
X164164152Y-98657857D01*
X164164152Y-98657857D02*
X164259390Y-98705476D01*
X164259390Y-98705476D02*
X164307009Y-98753095D01*
X164307009Y-98753095D02*
X164354628Y-98848333D01*
X164354628Y-98848333D02*
X164354628Y-99229285D01*
X163830819Y-98324523D02*
X163830819Y-97705476D01*
X163830819Y-97705476D02*
X164211771Y-98038809D01*
X164211771Y-98038809D02*
X164211771Y-97895952D01*
X164211771Y-97895952D02*
X164259390Y-97800714D01*
X164259390Y-97800714D02*
X164307009Y-97753095D01*
X164307009Y-97753095D02*
X164402247Y-97705476D01*
X164402247Y-97705476D02*
X164640342Y-97705476D01*
X164640342Y-97705476D02*
X164735580Y-97753095D01*
X164735580Y-97753095D02*
X164783200Y-97800714D01*
X164783200Y-97800714D02*
X164830819Y-97895952D01*
X164830819Y-97895952D02*
X164830819Y-98181666D01*
X164830819Y-98181666D02*
X164783200Y-98276904D01*
X164783200Y-98276904D02*
X164735580Y-98324523D01*
X163830819Y-97372142D02*
X163830819Y-96705476D01*
X163830819Y-96705476D02*
X164830819Y-97134047D01*
X180100381Y-91342009D02*
X180433714Y-91342009D01*
X180576571Y-91865819D02*
X180100381Y-91865819D01*
X180100381Y-91865819D02*
X180100381Y-90865819D01*
X180100381Y-90865819D02*
X180576571Y-90865819D01*
X180909905Y-90865819D02*
X181576571Y-91865819D01*
X181576571Y-90865819D02*
X180909905Y-91865819D01*
X181814667Y-90865819D02*
X182386095Y-90865819D01*
X182100381Y-91865819D02*
X182100381Y-90865819D01*
X182671810Y-90961057D02*
X182719429Y-90913438D01*
X182719429Y-90913438D02*
X182814667Y-90865819D01*
X182814667Y-90865819D02*
X183052762Y-90865819D01*
X183052762Y-90865819D02*
X183148000Y-90913438D01*
X183148000Y-90913438D02*
X183195619Y-90961057D01*
X183195619Y-90961057D02*
X183243238Y-91056295D01*
X183243238Y-91056295D02*
X183243238Y-91151533D01*
X183243238Y-91151533D02*
X183195619Y-91294390D01*
X183195619Y-91294390D02*
X182624191Y-91865819D01*
X182624191Y-91865819D02*
X183243238Y-91865819D01*
X106837142Y-133013819D02*
X106503809Y-132537628D01*
X106265714Y-133013819D02*
X106265714Y-132013819D01*
X106265714Y-132013819D02*
X106646666Y-132013819D01*
X106646666Y-132013819D02*
X106741904Y-132061438D01*
X106741904Y-132061438D02*
X106789523Y-132109057D01*
X106789523Y-132109057D02*
X106837142Y-132204295D01*
X106837142Y-132204295D02*
X106837142Y-132347152D01*
X106837142Y-132347152D02*
X106789523Y-132442390D01*
X106789523Y-132442390D02*
X106741904Y-132490009D01*
X106741904Y-132490009D02*
X106646666Y-132537628D01*
X106646666Y-132537628D02*
X106265714Y-132537628D01*
X107170476Y-132013819D02*
X107789523Y-132013819D01*
X107789523Y-132013819D02*
X107456190Y-132394771D01*
X107456190Y-132394771D02*
X107599047Y-132394771D01*
X107599047Y-132394771D02*
X107694285Y-132442390D01*
X107694285Y-132442390D02*
X107741904Y-132490009D01*
X107741904Y-132490009D02*
X107789523Y-132585247D01*
X107789523Y-132585247D02*
X107789523Y-132823342D01*
X107789523Y-132823342D02*
X107741904Y-132918580D01*
X107741904Y-132918580D02*
X107694285Y-132966200D01*
X107694285Y-132966200D02*
X107599047Y-133013819D01*
X107599047Y-133013819D02*
X107313333Y-133013819D01*
X107313333Y-133013819D02*
X107218095Y-132966200D01*
X107218095Y-132966200D02*
X107170476Y-132918580D01*
X108170476Y-132109057D02*
X108218095Y-132061438D01*
X108218095Y-132061438D02*
X108313333Y-132013819D01*
X108313333Y-132013819D02*
X108551428Y-132013819D01*
X108551428Y-132013819D02*
X108646666Y-132061438D01*
X108646666Y-132061438D02*
X108694285Y-132109057D01*
X108694285Y-132109057D02*
X108741904Y-132204295D01*
X108741904Y-132204295D02*
X108741904Y-132299533D01*
X108741904Y-132299533D02*
X108694285Y-132442390D01*
X108694285Y-132442390D02*
X108122857Y-133013819D01*
X108122857Y-133013819D02*
X108741904Y-133013819D01*
X106837142Y-107359819D02*
X106503809Y-106883628D01*
X106265714Y-107359819D02*
X106265714Y-106359819D01*
X106265714Y-106359819D02*
X106646666Y-106359819D01*
X106646666Y-106359819D02*
X106741904Y-106407438D01*
X106741904Y-106407438D02*
X106789523Y-106455057D01*
X106789523Y-106455057D02*
X106837142Y-106550295D01*
X106837142Y-106550295D02*
X106837142Y-106693152D01*
X106837142Y-106693152D02*
X106789523Y-106788390D01*
X106789523Y-106788390D02*
X106741904Y-106836009D01*
X106741904Y-106836009D02*
X106646666Y-106883628D01*
X106646666Y-106883628D02*
X106265714Y-106883628D01*
X107789523Y-107359819D02*
X107218095Y-107359819D01*
X107503809Y-107359819D02*
X107503809Y-106359819D01*
X107503809Y-106359819D02*
X107408571Y-106502676D01*
X107408571Y-106502676D02*
X107313333Y-106597914D01*
X107313333Y-106597914D02*
X107218095Y-106645533D01*
X108122857Y-106359819D02*
X108741904Y-106359819D01*
X108741904Y-106359819D02*
X108408571Y-106740771D01*
X108408571Y-106740771D02*
X108551428Y-106740771D01*
X108551428Y-106740771D02*
X108646666Y-106788390D01*
X108646666Y-106788390D02*
X108694285Y-106836009D01*
X108694285Y-106836009D02*
X108741904Y-106931247D01*
X108741904Y-106931247D02*
X108741904Y-107169342D01*
X108741904Y-107169342D02*
X108694285Y-107264580D01*
X108694285Y-107264580D02*
X108646666Y-107312200D01*
X108646666Y-107312200D02*
X108551428Y-107359819D01*
X108551428Y-107359819D02*
X108265714Y-107359819D01*
X108265714Y-107359819D02*
X108170476Y-107312200D01*
X108170476Y-107312200D02*
X108122857Y-107264580D01*
X106837142Y-112439819D02*
X106503809Y-111963628D01*
X106265714Y-112439819D02*
X106265714Y-111439819D01*
X106265714Y-111439819D02*
X106646666Y-111439819D01*
X106646666Y-111439819D02*
X106741904Y-111487438D01*
X106741904Y-111487438D02*
X106789523Y-111535057D01*
X106789523Y-111535057D02*
X106837142Y-111630295D01*
X106837142Y-111630295D02*
X106837142Y-111773152D01*
X106837142Y-111773152D02*
X106789523Y-111868390D01*
X106789523Y-111868390D02*
X106741904Y-111916009D01*
X106741904Y-111916009D02*
X106646666Y-111963628D01*
X106646666Y-111963628D02*
X106265714Y-111963628D01*
X107789523Y-112439819D02*
X107218095Y-112439819D01*
X107503809Y-112439819D02*
X107503809Y-111439819D01*
X107503809Y-111439819D02*
X107408571Y-111582676D01*
X107408571Y-111582676D02*
X107313333Y-111677914D01*
X107313333Y-111677914D02*
X107218095Y-111725533D01*
X108694285Y-111439819D02*
X108218095Y-111439819D01*
X108218095Y-111439819D02*
X108170476Y-111916009D01*
X108170476Y-111916009D02*
X108218095Y-111868390D01*
X108218095Y-111868390D02*
X108313333Y-111820771D01*
X108313333Y-111820771D02*
X108551428Y-111820771D01*
X108551428Y-111820771D02*
X108646666Y-111868390D01*
X108646666Y-111868390D02*
X108694285Y-111916009D01*
X108694285Y-111916009D02*
X108741904Y-112011247D01*
X108741904Y-112011247D02*
X108741904Y-112249342D01*
X108741904Y-112249342D02*
X108694285Y-112344580D01*
X108694285Y-112344580D02*
X108646666Y-112392200D01*
X108646666Y-112392200D02*
X108551428Y-112439819D01*
X108551428Y-112439819D02*
X108313333Y-112439819D01*
X108313333Y-112439819D02*
X108218095Y-112392200D01*
X108218095Y-112392200D02*
X108170476Y-112344580D01*
X106805333Y-72053819D02*
X106472000Y-71577628D01*
X106233905Y-72053819D02*
X106233905Y-71053819D01*
X106233905Y-71053819D02*
X106614857Y-71053819D01*
X106614857Y-71053819D02*
X106710095Y-71101438D01*
X106710095Y-71101438D02*
X106757714Y-71149057D01*
X106757714Y-71149057D02*
X106805333Y-71244295D01*
X106805333Y-71244295D02*
X106805333Y-71387152D01*
X106805333Y-71387152D02*
X106757714Y-71482390D01*
X106757714Y-71482390D02*
X106710095Y-71530009D01*
X106710095Y-71530009D02*
X106614857Y-71577628D01*
X106614857Y-71577628D02*
X106233905Y-71577628D01*
X107186286Y-71149057D02*
X107233905Y-71101438D01*
X107233905Y-71101438D02*
X107329143Y-71053819D01*
X107329143Y-71053819D02*
X107567238Y-71053819D01*
X107567238Y-71053819D02*
X107662476Y-71101438D01*
X107662476Y-71101438D02*
X107710095Y-71149057D01*
X107710095Y-71149057D02*
X107757714Y-71244295D01*
X107757714Y-71244295D02*
X107757714Y-71339533D01*
X107757714Y-71339533D02*
X107710095Y-71482390D01*
X107710095Y-71482390D02*
X107138667Y-72053819D01*
X107138667Y-72053819D02*
X107757714Y-72053819D01*
X106837142Y-74339819D02*
X106503809Y-73863628D01*
X106265714Y-74339819D02*
X106265714Y-73339819D01*
X106265714Y-73339819D02*
X106646666Y-73339819D01*
X106646666Y-73339819D02*
X106741904Y-73387438D01*
X106741904Y-73387438D02*
X106789523Y-73435057D01*
X106789523Y-73435057D02*
X106837142Y-73530295D01*
X106837142Y-73530295D02*
X106837142Y-73673152D01*
X106837142Y-73673152D02*
X106789523Y-73768390D01*
X106789523Y-73768390D02*
X106741904Y-73816009D01*
X106741904Y-73816009D02*
X106646666Y-73863628D01*
X106646666Y-73863628D02*
X106265714Y-73863628D01*
X107789523Y-74339819D02*
X107218095Y-74339819D01*
X107503809Y-74339819D02*
X107503809Y-73339819D01*
X107503809Y-73339819D02*
X107408571Y-73482676D01*
X107408571Y-73482676D02*
X107313333Y-73577914D01*
X107313333Y-73577914D02*
X107218095Y-73625533D01*
X108265714Y-74339819D02*
X108456190Y-74339819D01*
X108456190Y-74339819D02*
X108551428Y-74292200D01*
X108551428Y-74292200D02*
X108599047Y-74244580D01*
X108599047Y-74244580D02*
X108694285Y-74101723D01*
X108694285Y-74101723D02*
X108741904Y-73911247D01*
X108741904Y-73911247D02*
X108741904Y-73530295D01*
X108741904Y-73530295D02*
X108694285Y-73435057D01*
X108694285Y-73435057D02*
X108646666Y-73387438D01*
X108646666Y-73387438D02*
X108551428Y-73339819D01*
X108551428Y-73339819D02*
X108360952Y-73339819D01*
X108360952Y-73339819D02*
X108265714Y-73387438D01*
X108265714Y-73387438D02*
X108218095Y-73435057D01*
X108218095Y-73435057D02*
X108170476Y-73530295D01*
X108170476Y-73530295D02*
X108170476Y-73768390D01*
X108170476Y-73768390D02*
X108218095Y-73863628D01*
X108218095Y-73863628D02*
X108265714Y-73911247D01*
X108265714Y-73911247D02*
X108360952Y-73958866D01*
X108360952Y-73958866D02*
X108551428Y-73958866D01*
X108551428Y-73958866D02*
X108646666Y-73911247D01*
X108646666Y-73911247D02*
X108694285Y-73863628D01*
X108694285Y-73863628D02*
X108741904Y-73768390D01*
X136401666Y-93897819D02*
X136401666Y-94612104D01*
X136401666Y-94612104D02*
X136354047Y-94754961D01*
X136354047Y-94754961D02*
X136258809Y-94850200D01*
X136258809Y-94850200D02*
X136115952Y-94897819D01*
X136115952Y-94897819D02*
X136020714Y-94897819D01*
X136877857Y-94897819D02*
X136877857Y-93897819D01*
X136877857Y-93897819D02*
X137258809Y-93897819D01*
X137258809Y-93897819D02*
X137354047Y-93945438D01*
X137354047Y-93945438D02*
X137401666Y-93993057D01*
X137401666Y-93993057D02*
X137449285Y-94088295D01*
X137449285Y-94088295D02*
X137449285Y-94231152D01*
X137449285Y-94231152D02*
X137401666Y-94326390D01*
X137401666Y-94326390D02*
X137354047Y-94374009D01*
X137354047Y-94374009D02*
X137258809Y-94421628D01*
X137258809Y-94421628D02*
X136877857Y-94421628D01*
X138401666Y-94897819D02*
X137830238Y-94897819D01*
X138115952Y-94897819D02*
X138115952Y-93897819D01*
X138115952Y-93897819D02*
X138020714Y-94040676D01*
X138020714Y-94040676D02*
X137925476Y-94135914D01*
X137925476Y-94135914D02*
X137830238Y-94183533D01*
X113187142Y-135553819D02*
X112853809Y-135077628D01*
X112615714Y-135553819D02*
X112615714Y-134553819D01*
X112615714Y-134553819D02*
X112996666Y-134553819D01*
X112996666Y-134553819D02*
X113091904Y-134601438D01*
X113091904Y-134601438D02*
X113139523Y-134649057D01*
X113139523Y-134649057D02*
X113187142Y-134744295D01*
X113187142Y-134744295D02*
X113187142Y-134887152D01*
X113187142Y-134887152D02*
X113139523Y-134982390D01*
X113139523Y-134982390D02*
X113091904Y-135030009D01*
X113091904Y-135030009D02*
X112996666Y-135077628D01*
X112996666Y-135077628D02*
X112615714Y-135077628D01*
X113568095Y-134649057D02*
X113615714Y-134601438D01*
X113615714Y-134601438D02*
X113710952Y-134553819D01*
X113710952Y-134553819D02*
X113949047Y-134553819D01*
X113949047Y-134553819D02*
X114044285Y-134601438D01*
X114044285Y-134601438D02*
X114091904Y-134649057D01*
X114091904Y-134649057D02*
X114139523Y-134744295D01*
X114139523Y-134744295D02*
X114139523Y-134839533D01*
X114139523Y-134839533D02*
X114091904Y-134982390D01*
X114091904Y-134982390D02*
X113520476Y-135553819D01*
X113520476Y-135553819D02*
X114139523Y-135553819D01*
X114996666Y-134887152D02*
X114996666Y-135553819D01*
X114758571Y-134506200D02*
X114520476Y-135220485D01*
X114520476Y-135220485D02*
X115139523Y-135220485D01*
X106805333Y-94659819D02*
X106472000Y-94183628D01*
X106233905Y-94659819D02*
X106233905Y-93659819D01*
X106233905Y-93659819D02*
X106614857Y-93659819D01*
X106614857Y-93659819D02*
X106710095Y-93707438D01*
X106710095Y-93707438D02*
X106757714Y-93755057D01*
X106757714Y-93755057D02*
X106805333Y-93850295D01*
X106805333Y-93850295D02*
X106805333Y-93993152D01*
X106805333Y-93993152D02*
X106757714Y-94088390D01*
X106757714Y-94088390D02*
X106710095Y-94136009D01*
X106710095Y-94136009D02*
X106614857Y-94183628D01*
X106614857Y-94183628D02*
X106233905Y-94183628D01*
X107376762Y-94088390D02*
X107281524Y-94040771D01*
X107281524Y-94040771D02*
X107233905Y-93993152D01*
X107233905Y-93993152D02*
X107186286Y-93897914D01*
X107186286Y-93897914D02*
X107186286Y-93850295D01*
X107186286Y-93850295D02*
X107233905Y-93755057D01*
X107233905Y-93755057D02*
X107281524Y-93707438D01*
X107281524Y-93707438D02*
X107376762Y-93659819D01*
X107376762Y-93659819D02*
X107567238Y-93659819D01*
X107567238Y-93659819D02*
X107662476Y-93707438D01*
X107662476Y-93707438D02*
X107710095Y-93755057D01*
X107710095Y-93755057D02*
X107757714Y-93850295D01*
X107757714Y-93850295D02*
X107757714Y-93897914D01*
X107757714Y-93897914D02*
X107710095Y-93993152D01*
X107710095Y-93993152D02*
X107662476Y-94040771D01*
X107662476Y-94040771D02*
X107567238Y-94088390D01*
X107567238Y-94088390D02*
X107376762Y-94088390D01*
X107376762Y-94088390D02*
X107281524Y-94136009D01*
X107281524Y-94136009D02*
X107233905Y-94183628D01*
X107233905Y-94183628D02*
X107186286Y-94278866D01*
X107186286Y-94278866D02*
X107186286Y-94469342D01*
X107186286Y-94469342D02*
X107233905Y-94564580D01*
X107233905Y-94564580D02*
X107281524Y-94612200D01*
X107281524Y-94612200D02*
X107376762Y-94659819D01*
X107376762Y-94659819D02*
X107567238Y-94659819D01*
X107567238Y-94659819D02*
X107662476Y-94612200D01*
X107662476Y-94612200D02*
X107710095Y-94564580D01*
X107710095Y-94564580D02*
X107757714Y-94469342D01*
X107757714Y-94469342D02*
X107757714Y-94278866D01*
X107757714Y-94278866D02*
X107710095Y-94183628D01*
X107710095Y-94183628D02*
X107662476Y-94136009D01*
X107662476Y-94136009D02*
X107567238Y-94088390D01*
X115152595Y-138924819D02*
X115724023Y-138924819D01*
X115438309Y-139924819D02*
X115438309Y-138924819D01*
X116628785Y-139924819D02*
X116295452Y-139448628D01*
X116057357Y-139924819D02*
X116057357Y-138924819D01*
X116057357Y-138924819D02*
X116438309Y-138924819D01*
X116438309Y-138924819D02*
X116533547Y-138972438D01*
X116533547Y-138972438D02*
X116581166Y-139020057D01*
X116581166Y-139020057D02*
X116628785Y-139115295D01*
X116628785Y-139115295D02*
X116628785Y-139258152D01*
X116628785Y-139258152D02*
X116581166Y-139353390D01*
X116581166Y-139353390D02*
X116533547Y-139401009D01*
X116533547Y-139401009D02*
X116438309Y-139448628D01*
X116438309Y-139448628D02*
X116057357Y-139448628D01*
X117009738Y-139020057D02*
X117057357Y-138972438D01*
X117057357Y-138972438D02*
X117152595Y-138924819D01*
X117152595Y-138924819D02*
X117390690Y-138924819D01*
X117390690Y-138924819D02*
X117485928Y-138972438D01*
X117485928Y-138972438D02*
X117533547Y-139020057D01*
X117533547Y-139020057D02*
X117581166Y-139115295D01*
X117581166Y-139115295D02*
X117581166Y-139210533D01*
X117581166Y-139210533D02*
X117533547Y-139353390D01*
X117533547Y-139353390D02*
X116962119Y-139924819D01*
X116962119Y-139924819D02*
X117581166Y-139924819D01*
X152046667Y-141642200D02*
X152189524Y-141689819D01*
X152189524Y-141689819D02*
X152427619Y-141689819D01*
X152427619Y-141689819D02*
X152522857Y-141642200D01*
X152522857Y-141642200D02*
X152570476Y-141594580D01*
X152570476Y-141594580D02*
X152618095Y-141499342D01*
X152618095Y-141499342D02*
X152618095Y-141404104D01*
X152618095Y-141404104D02*
X152570476Y-141308866D01*
X152570476Y-141308866D02*
X152522857Y-141261247D01*
X152522857Y-141261247D02*
X152427619Y-141213628D01*
X152427619Y-141213628D02*
X152237143Y-141166009D01*
X152237143Y-141166009D02*
X152141905Y-141118390D01*
X152141905Y-141118390D02*
X152094286Y-141070771D01*
X152094286Y-141070771D02*
X152046667Y-140975533D01*
X152046667Y-140975533D02*
X152046667Y-140880295D01*
X152046667Y-140880295D02*
X152094286Y-140785057D01*
X152094286Y-140785057D02*
X152141905Y-140737438D01*
X152141905Y-140737438D02*
X152237143Y-140689819D01*
X152237143Y-140689819D02*
X152475238Y-140689819D01*
X152475238Y-140689819D02*
X152618095Y-140737438D01*
X152951429Y-140689819D02*
X153189524Y-141689819D01*
X153189524Y-141689819D02*
X153380000Y-140975533D01*
X153380000Y-140975533D02*
X153570476Y-141689819D01*
X153570476Y-141689819D02*
X153808572Y-140689819D01*
X154141905Y-140785057D02*
X154189524Y-140737438D01*
X154189524Y-140737438D02*
X154284762Y-140689819D01*
X154284762Y-140689819D02*
X154522857Y-140689819D01*
X154522857Y-140689819D02*
X154618095Y-140737438D01*
X154618095Y-140737438D02*
X154665714Y-140785057D01*
X154665714Y-140785057D02*
X154713333Y-140880295D01*
X154713333Y-140880295D02*
X154713333Y-140975533D01*
X154713333Y-140975533D02*
X154665714Y-141118390D01*
X154665714Y-141118390D02*
X154094286Y-141689819D01*
X154094286Y-141689819D02*
X154713333Y-141689819D01*
X106837142Y-114979819D02*
X106503809Y-114503628D01*
X106265714Y-114979819D02*
X106265714Y-113979819D01*
X106265714Y-113979819D02*
X106646666Y-113979819D01*
X106646666Y-113979819D02*
X106741904Y-114027438D01*
X106741904Y-114027438D02*
X106789523Y-114075057D01*
X106789523Y-114075057D02*
X106837142Y-114170295D01*
X106837142Y-114170295D02*
X106837142Y-114313152D01*
X106837142Y-114313152D02*
X106789523Y-114408390D01*
X106789523Y-114408390D02*
X106741904Y-114456009D01*
X106741904Y-114456009D02*
X106646666Y-114503628D01*
X106646666Y-114503628D02*
X106265714Y-114503628D01*
X107789523Y-114979819D02*
X107218095Y-114979819D01*
X107503809Y-114979819D02*
X107503809Y-113979819D01*
X107503809Y-113979819D02*
X107408571Y-114122676D01*
X107408571Y-114122676D02*
X107313333Y-114217914D01*
X107313333Y-114217914D02*
X107218095Y-114265533D01*
X108646666Y-113979819D02*
X108456190Y-113979819D01*
X108456190Y-113979819D02*
X108360952Y-114027438D01*
X108360952Y-114027438D02*
X108313333Y-114075057D01*
X108313333Y-114075057D02*
X108218095Y-114217914D01*
X108218095Y-114217914D02*
X108170476Y-114408390D01*
X108170476Y-114408390D02*
X108170476Y-114789342D01*
X108170476Y-114789342D02*
X108218095Y-114884580D01*
X108218095Y-114884580D02*
X108265714Y-114932200D01*
X108265714Y-114932200D02*
X108360952Y-114979819D01*
X108360952Y-114979819D02*
X108551428Y-114979819D01*
X108551428Y-114979819D02*
X108646666Y-114932200D01*
X108646666Y-114932200D02*
X108694285Y-114884580D01*
X108694285Y-114884580D02*
X108741904Y-114789342D01*
X108741904Y-114789342D02*
X108741904Y-114551247D01*
X108741904Y-114551247D02*
X108694285Y-114456009D01*
X108694285Y-114456009D02*
X108646666Y-114408390D01*
X108646666Y-114408390D02*
X108551428Y-114360771D01*
X108551428Y-114360771D02*
X108360952Y-114360771D01*
X108360952Y-114360771D02*
X108265714Y-114408390D01*
X108265714Y-114408390D02*
X108218095Y-114456009D01*
X108218095Y-114456009D02*
X108170476Y-114551247D01*
X171656819Y-119327094D02*
X170656819Y-119327094D01*
X170656819Y-119327094D02*
X170656819Y-119088999D01*
X170656819Y-119088999D02*
X170704438Y-118946142D01*
X170704438Y-118946142D02*
X170799676Y-118850904D01*
X170799676Y-118850904D02*
X170894914Y-118803285D01*
X170894914Y-118803285D02*
X171085390Y-118755666D01*
X171085390Y-118755666D02*
X171228247Y-118755666D01*
X171228247Y-118755666D02*
X171418723Y-118803285D01*
X171418723Y-118803285D02*
X171513961Y-118850904D01*
X171513961Y-118850904D02*
X171609200Y-118946142D01*
X171609200Y-118946142D02*
X171656819Y-119088999D01*
X171656819Y-119088999D02*
X171656819Y-119327094D01*
X171656819Y-117803285D02*
X171656819Y-118374713D01*
X171656819Y-118088999D02*
X170656819Y-118088999D01*
X170656819Y-118088999D02*
X170799676Y-118184237D01*
X170799676Y-118184237D02*
X170894914Y-118279475D01*
X170894914Y-118279475D02*
X170942533Y-118374713D01*
D12*
%TO.C,JP5*%
X110945000Y-148355000D02*
X110945000Y-146975000D01*
X112325000Y-148355000D02*
X110945000Y-148355000D01*
X113595000Y-148355000D02*
X116245000Y-148355000D01*
X113595000Y-148355000D02*
X113595000Y-145595000D01*
X116245000Y-148355000D02*
X116245000Y-145595000D01*
X113595000Y-145595000D02*
X116245000Y-145595000D01*
%TO.C,J1*%
X183620000Y-114455000D02*
X185000000Y-114455000D01*
X183620000Y-115835000D02*
X183620000Y-114455000D01*
X183620000Y-117105000D02*
X183620000Y-145155000D01*
X183620000Y-117105000D02*
X186380000Y-117105000D01*
X183620000Y-145155000D02*
X186380000Y-145155000D01*
X186380000Y-117105000D02*
X186380000Y-145155000D01*
%TO.C,R14*%
X103879064Y-108715000D02*
X103424936Y-108715000D01*
X103879064Y-110185000D02*
X103424936Y-110185000D01*
%TO.C,R31*%
X103879064Y-129035000D02*
X103424936Y-129035000D01*
X103879064Y-130505000D02*
X103424936Y-130505000D01*
%TO.C,JP4*%
X135835000Y-105893000D02*
X138635000Y-105893000D01*
X135835000Y-107893000D02*
X135835000Y-105893000D01*
X138635000Y-105893000D02*
X138635000Y-107893000D01*
X138635000Y-107893000D02*
X135835000Y-107893000D01*
%TO.C,R20*%
X103879064Y-75695000D02*
X103424936Y-75695000D01*
X103879064Y-77165000D02*
X103424936Y-77165000D01*
%TO.C,R28*%
X103879064Y-121415000D02*
X103424936Y-121415000D01*
X103879064Y-122885000D02*
X103424936Y-122885000D01*
%TO.C,R17*%
X103879064Y-116335000D02*
X103424936Y-116335000D01*
X103879064Y-117805000D02*
X103424936Y-117805000D01*
%TO.C,R33*%
X103879064Y-134115000D02*
X103424936Y-134115000D01*
X103879064Y-135585000D02*
X103424936Y-135585000D01*
%TO.C,R34*%
X103879064Y-136655000D02*
X103424936Y-136655000D01*
X103879064Y-138125000D02*
X103424936Y-138125000D01*
%TO.C,R18*%
X103879064Y-118875000D02*
X103424936Y-118875000D01*
X103879064Y-120345000D02*
X103424936Y-120345000D01*
%TO.C,R29*%
X103879064Y-123955000D02*
X103424936Y-123955000D01*
X103879064Y-125425000D02*
X103424936Y-125425000D01*
%TO.C,R27*%
X166955000Y-94824564D02*
X166955000Y-94370436D01*
X168425000Y-94824564D02*
X168425000Y-94370436D01*
%TO.C,EXT1*%
X137700000Y-60995000D02*
X137700000Y-66195000D01*
X186020000Y-63595000D02*
X186020000Y-66195000D01*
X186020000Y-66195000D02*
X137700000Y-66195000D01*
X188620000Y-60995000D02*
X137700000Y-60995000D01*
X188620000Y-60995000D02*
X188620000Y-63595000D01*
X188620000Y-63595000D02*
X186020000Y-63595000D01*
X188620000Y-64865000D02*
X188620000Y-66195000D01*
X188620000Y-66195000D02*
X187290000Y-66195000D01*
%TO.C,JP3*%
X135835000Y-102343000D02*
X138635000Y-102343000D01*
X135835000Y-104343000D02*
X135835000Y-102343000D01*
X138635000Y-102343000D02*
X138635000Y-104343000D01*
X138635000Y-104343000D02*
X135835000Y-104343000D01*
%TO.C,R1*%
X103879064Y-68075000D02*
X103424936Y-68075000D01*
X103879064Y-69545000D02*
X103424936Y-69545000D01*
%TO.C,R38*%
X157675000Y-100343936D02*
X157675000Y-100798064D01*
X159145000Y-100343936D02*
X159145000Y-100798064D01*
%TO.C,R7*%
X103879064Y-90935000D02*
X103424936Y-90935000D01*
X103879064Y-92405000D02*
X103424936Y-92405000D01*
%TO.C,R39*%
X155005000Y-100327936D02*
X155005000Y-100782064D01*
X156475000Y-100327936D02*
X156475000Y-100782064D01*
%TO.C,R21*%
X110229064Y-139195000D02*
X109774936Y-139195000D01*
X110229064Y-140665000D02*
X109774936Y-140665000D01*
%TO.C,JP2*%
X135835000Y-98793000D02*
X138635000Y-98793000D01*
X135835000Y-100793000D02*
X135835000Y-98793000D01*
X138635000Y-98793000D02*
X138635000Y-100793000D01*
X138635000Y-100793000D02*
X135835000Y-100793000D01*
%TO.C,R22*%
X103424936Y-78235000D02*
X103879064Y-78235000D01*
X103424936Y-79705000D02*
X103879064Y-79705000D01*
%TO.C,R4*%
X103879064Y-83315000D02*
X103424936Y-83315000D01*
X103879064Y-84785000D02*
X103424936Y-84785000D01*
D11*
%TO.C,XS1*%
X173630000Y-99165000D02*
X174930000Y-99165000D01*
X174930000Y-96165000D02*
X174930000Y-99165000D01*
X175530000Y-99615000D02*
X175830000Y-99615000D01*
X175530000Y-99915000D02*
X175530000Y-99615000D01*
X175830000Y-99615000D02*
X175830000Y-99915000D01*
X175830000Y-99915000D02*
X175530000Y-99915000D01*
X175930000Y-109315000D02*
X183130000Y-109315000D01*
X183130000Y-94615000D02*
X175930000Y-94615000D01*
X185930000Y-94615000D02*
X188930000Y-94615000D01*
X188230000Y-101965000D02*
X188230000Y-109315000D01*
X188230000Y-109315000D02*
X185930000Y-109315000D01*
X188280000Y-100615000D02*
X188230000Y-101965000D01*
X188430000Y-99465000D02*
X188280000Y-100615000D01*
X188630000Y-98365000D02*
X188430000Y-99465000D01*
X188930000Y-94615000D02*
X188930000Y-97315000D01*
X188930000Y-97315000D02*
X188630000Y-98365000D01*
D12*
%TO.C,R23*%
X109774936Y-136655000D02*
X110229064Y-136655000D01*
X109774936Y-138125000D02*
X110229064Y-138125000D01*
%TO.C,R3*%
X103879064Y-80775000D02*
X103424936Y-80775000D01*
X103879064Y-82245000D02*
X103424936Y-82245000D01*
%TO.C,R12*%
X103879064Y-103635000D02*
X103424936Y-103635000D01*
X103879064Y-105105000D02*
X103424936Y-105105000D01*
%TO.C,SW1*%
X134820000Y-144555000D02*
X134820000Y-146055000D01*
X136070000Y-148555000D02*
X140570000Y-148555000D01*
X140570000Y-142055000D02*
X136070000Y-142055000D01*
X141820000Y-146055000D02*
X141820000Y-144555000D01*
%TO.C,R35*%
X103879064Y-138941000D02*
X103424936Y-138941000D01*
X103879064Y-140411000D02*
X103424936Y-140411000D01*
%TO.C,R5*%
X103879064Y-85855000D02*
X103424936Y-85855000D01*
X103879064Y-87325000D02*
X103424936Y-87325000D01*
%TO.C,R10*%
X103879064Y-98555000D02*
X103424936Y-98555000D01*
X103879064Y-100025000D02*
X103424936Y-100025000D01*
%TO.C,J5*%
X149360000Y-106033000D02*
X149360000Y-108793000D01*
X157090000Y-106033000D02*
X149360000Y-106033000D01*
X157090000Y-106033000D02*
X157090000Y-108793000D01*
X157090000Y-108793000D02*
X149360000Y-108793000D01*
X158360000Y-106033000D02*
X159740000Y-106033000D01*
X159740000Y-106033000D02*
X159740000Y-107413000D01*
%TO.C,R36*%
X160355000Y-94614564D02*
X160355000Y-94160436D01*
X161825000Y-94614564D02*
X161825000Y-94160436D01*
%TO.C,SW7*%
X164740000Y-144745000D02*
X164740000Y-146245000D01*
X165990000Y-148745000D02*
X170490000Y-148745000D01*
X170490000Y-142245000D02*
X165990000Y-142245000D01*
X171740000Y-146245000D02*
X171740000Y-144745000D01*
%TO.C,TR3*%
X120734500Y-132970000D02*
X122254500Y-132970000D01*
X120734500Y-133970000D02*
X120734500Y-132970000D01*
X120734500Y-136090000D02*
X120734500Y-135090000D01*
X122254500Y-132970000D02*
X122254500Y-133020000D01*
X122254500Y-134140000D02*
X122254500Y-134920000D01*
X122254500Y-136040000D02*
X122254500Y-136090000D01*
X122254500Y-136090000D02*
X120734500Y-136090000D01*
X122794500Y-134910000D02*
X122554500Y-134580000D01*
X123034500Y-134580000D01*
X122794500Y-134910000D01*
G36*
X122794500Y-134910000D02*
G01*
X122554500Y-134580000D01*
X123034500Y-134580000D01*
X122794500Y-134910000D01*
G37*
%TO.C,R6*%
X103879064Y-88395000D02*
X103424936Y-88395000D01*
X103879064Y-89865000D02*
X103424936Y-89865000D01*
%TO.C,R30*%
X103879064Y-126495000D02*
X103424936Y-126495000D01*
X103879064Y-127965000D02*
X103424936Y-127965000D01*
%TO.C,R9*%
X103879064Y-96015000D02*
X103424936Y-96015000D01*
X103879064Y-97485000D02*
X103424936Y-97485000D01*
%TO.C,TR1*%
X108972000Y-77410000D02*
X110492000Y-77410000D01*
X108972000Y-78410000D02*
X108972000Y-77410000D01*
X108972000Y-80530000D02*
X108972000Y-79530000D01*
X110492000Y-77410000D02*
X110492000Y-77460000D01*
X110492000Y-78580000D02*
X110492000Y-79360000D01*
X110492000Y-80480000D02*
X110492000Y-80530000D01*
X110492000Y-80530000D02*
X108972000Y-80530000D01*
X111032000Y-79350000D02*
X110792000Y-79020000D01*
X111272000Y-79020000D01*
X111032000Y-79350000D01*
G36*
X111032000Y-79350000D02*
G01*
X110792000Y-79020000D01*
X111272000Y-79020000D01*
X111032000Y-79350000D01*
G37*
%TO.C,J2*%
X90200000Y-57110000D02*
X95120000Y-57110000D01*
X90200000Y-151630000D02*
X95120000Y-151630000D01*
X94120000Y-64348000D02*
X94120000Y-62630000D01*
X94120000Y-146110000D02*
X94120000Y-144835000D01*
X94700000Y-145435000D02*
X95300000Y-145435000D01*
X95000000Y-144835000D02*
X94700000Y-145435000D01*
X95120000Y-57110000D02*
X95120000Y-62630000D01*
X95120000Y-62630000D02*
X94120000Y-62630000D01*
X95120000Y-146110000D02*
X94120000Y-146110000D01*
X95120000Y-151630000D02*
X95120000Y-146110000D01*
X95300000Y-145435000D02*
X95000000Y-144835000D01*
%TO.C,R11*%
X103879064Y-101095000D02*
X103424936Y-101095000D01*
X103879064Y-102565000D02*
X103424936Y-102565000D01*
%TO.C,R37*%
X163655000Y-94614564D02*
X163655000Y-94160436D01*
X165125000Y-94614564D02*
X165125000Y-94160436D01*
%TO.C,EXT2*%
X137700000Y-84535000D02*
X137700000Y-89735000D01*
X186020000Y-87135000D02*
X186020000Y-89735000D01*
X186020000Y-89735000D02*
X137700000Y-89735000D01*
X188620000Y-84535000D02*
X137700000Y-84535000D01*
X188620000Y-84535000D02*
X188620000Y-87135000D01*
X188620000Y-87135000D02*
X186020000Y-87135000D01*
X188620000Y-88405000D02*
X188620000Y-89735000D01*
X188620000Y-89735000D02*
X187290000Y-89735000D01*
%TO.C,R32*%
X103879064Y-131575000D02*
X103424936Y-131575000D01*
X103879064Y-133045000D02*
X103424936Y-133045000D01*
%TO.C,R13*%
X103879064Y-106175000D02*
X103424936Y-106175000D01*
X103879064Y-107645000D02*
X103424936Y-107645000D01*
%TO.C,R15*%
X103879064Y-111255000D02*
X103424936Y-111255000D01*
X103879064Y-112725000D02*
X103424936Y-112725000D01*
%TO.C,R2*%
X103879064Y-70615000D02*
X103424936Y-70615000D01*
X103879064Y-72085000D02*
X103424936Y-72085000D01*
%TO.C,R19*%
X103879064Y-73155000D02*
X103424936Y-73155000D01*
X103879064Y-74625000D02*
X103424936Y-74625000D01*
%TO.C,JP1*%
X135835000Y-95243000D02*
X138635000Y-95243000D01*
X135835000Y-97243000D02*
X135835000Y-95243000D01*
X138635000Y-95243000D02*
X138635000Y-97243000D01*
X138635000Y-97243000D02*
X135835000Y-97243000D01*
%TO.C,R24*%
X109774936Y-134115000D02*
X110229064Y-134115000D01*
X109774936Y-135585000D02*
X110229064Y-135585000D01*
%TO.C,R8*%
X103879064Y-93475000D02*
X103424936Y-93475000D01*
X103879064Y-94945000D02*
X103424936Y-94945000D01*
%TO.C,TR2*%
X115654500Y-135510000D02*
X117174500Y-135510000D01*
X115654500Y-136510000D02*
X115654500Y-135510000D01*
X115654500Y-138630000D02*
X115654500Y-137630000D01*
X117174500Y-135510000D02*
X117174500Y-135560000D01*
X117174500Y-136680000D02*
X117174500Y-137460000D01*
X117174500Y-138580000D02*
X117174500Y-138630000D01*
X117174500Y-138630000D02*
X115654500Y-138630000D01*
X117714500Y-137450000D02*
X117474500Y-137120000D01*
X117954500Y-137120000D01*
X117714500Y-137450000D01*
G36*
X117714500Y-137450000D02*
G01*
X117474500Y-137120000D01*
X117954500Y-137120000D01*
X117714500Y-137450000D01*
G37*
%TO.C,SW2*%
X149880000Y-144735000D02*
X149880000Y-146235000D01*
X151130000Y-148735000D02*
X155630000Y-148735000D01*
X155630000Y-142235000D02*
X151130000Y-142235000D01*
X156880000Y-146235000D02*
X156880000Y-144735000D01*
%TO.C,R16*%
X103879064Y-113795000D02*
X103424936Y-113795000D01*
X103879064Y-115265000D02*
X103424936Y-115265000D01*
%TO.C,D1*%
X168202000Y-116229000D02*
X168202000Y-120239000D01*
X170202000Y-116229000D02*
X168202000Y-116229000D01*
X170202000Y-116229000D02*
X170202000Y-120239000D01*
%TD*%
M02*
